<svg width="22" height="24" viewBox="0 0 22 24" fill="none" xmlns="http://www.w3.org/2000/svg">
<path d="M19.4761 8.26364V3.89987C19.4761 1.39136 17.7254 0.50293 16.0792 0.50293H6.30646C4.66025 0.50293 2.90952 1.39136 2.90952 3.89987V8.26364C1.70752 8.5772 0.819092 9.64854 0.819092 10.9551V17.958C0.819092 20.0223 2.204 20.8323 3.56278 20.9107V22.6876C3.56278 23.2102 3.98086 23.6283 4.50347 23.6283H5.47029C5.9929 23.6283 6.41098 23.2102 6.41098 22.6876V20.9107H16.0008V22.6876C16.0008 23.2102 16.4189 23.6283 16.9415 23.6283H17.9083C18.4309 23.6283 18.849 23.2102 18.849 22.6876V20.9107C20.8611 20.8062 21.5927 19.3429 21.5927 17.958V10.9289C21.5404 9.64854 20.652 8.55107 19.4761 8.26364ZM3.85021 3.89987C3.85021 1.75719 5.3919 1.41749 6.30646 1.41749H16.0792C16.9938 1.41749 18.5355 1.73105 18.5355 3.87374V8.15911C17.1244 8.28977 16.0008 9.46563 16.0008 10.9289V11.5822H6.38485V10.9289C6.38485 9.46563 5.26125 8.28977 3.85021 8.15911V3.89987ZM15.9747 12.5229V15.763H6.38485V12.5229H15.9747ZM5.47029 22.6876H4.50347V20.9107H5.47029V22.6876ZM17.8822 22.6876H16.9154V20.9107H17.8822V22.6876ZM20.652 17.958H20.6259C20.6259 18.8725 20.2862 19.9961 18.5877 19.9961H17.8822H16.9154H5.47029H4.50347H3.79795C2.88339 19.9961 1.75978 19.6565 1.75978 17.958V10.9289C1.75978 9.90985 2.59595 9.07368 3.61504 9.07368C4.63412 9.07368 5.47029 9.90985 5.47029 10.9289V16.2334C5.47029 16.4947 5.67933 16.7037 5.94064 16.7037H16.4712C16.7325 16.7037 16.9415 16.4947 16.9415 16.2334V10.9289C16.9415 9.90985 17.7777 9.07368 18.7968 9.07368C19.8158 9.07368 20.652 9.90985 20.652 10.9289V17.958Z" fill="#8D8D8D"/>
</svg>