<svg width="132" height="46" viewBox="0 0 132 46" fill="none" xmlns="http://www.w3.org/2000/svg">
<path d="M17.3682 11.5705H19.8613C20.0269 11.5705 20.1594 11.438 20.1594 11.2807C20.1594 11.115 20.0269 10.9825 19.8613 10.9825H17.3682C17.2109 10.9825 17.0701 11.115 17.0701 11.2807C17.0701 11.438 17.2026 11.5705 17.3682 11.5705ZM18.6106 33.4361C17.8983 33.4361 17.3103 34.0242 17.3103 34.7365C17.3103 35.4488 17.89 36.0368 18.6106 36.0368C19.3312 36.0368 19.9109 35.4571 19.9109 34.7365C19.9109 34.0242 19.3312 33.4361 18.6106 33.4361ZM12.2497 32.3263H24.9881V13.4921H12.2497V32.3263ZM53.0738 26.1393C52.4692 26.1393 51.9225 26.3381 51.4339 26.7357C50.9452 27.1415 50.6222 27.6633 50.4731 28.3176C50.3986 28.6241 50.3654 28.8725 50.3654 29.063V30.8934C50.3654 31.6968 50.6056 32.376 51.1026 32.9226C51.5912 33.4693 52.229 33.7509 53.0158 33.7509C53.9352 33.7509 54.6557 33.3947 55.1692 32.6824C55.6827 31.9702 55.9395 31.0342 55.9395 29.8664C55.9395 28.798 55.6993 27.9118 55.2189 27.216C54.6806 26.512 53.9683 26.1393 53.0738 26.1393ZM97.7409 25.9902C96.7636 25.9902 96.0099 26.4292 95.5046 27.2989C95.0574 28.0194 94.842 28.8974 94.842 29.941C94.842 30.9514 95.0574 31.8211 95.5046 32.5416C96.0264 33.4113 96.7718 33.8503 97.7243 33.8503C98.652 33.8503 99.3891 33.4113 99.9192 32.5168C100.375 31.7879 100.607 30.91 100.607 29.8996C100.607 28.8891 100.391 28.0194 99.9523 27.2989C99.4222 26.4209 98.6934 25.9902 97.7409 25.9902ZM65.1827 26.1393C64.5781 26.1393 64.0314 26.3381 63.5428 26.7357C63.0541 27.1415 62.7311 27.6633 62.5737 28.3176C62.4992 28.6241 62.466 28.8725 62.466 29.063V30.8934C62.466 31.6968 62.7062 32.376 63.2032 32.9226C63.6918 33.4693 64.3296 33.7509 65.1164 33.7509C66.0441 33.7509 66.7563 33.3947 67.2781 32.6824C67.7916 31.9702 68.0484 31.0342 68.0484 29.8664C68.0484 28.798 67.8082 27.9118 67.3195 27.216C66.7895 26.512 66.0772 26.1393 65.1827 26.1393ZM39.8882 22.1969H39.8385C39.6811 22.8512 39.4492 23.8037 39.1096 25.0792L37.8424 29.0713H41.9422L40.6584 25.0792C40.5176 24.6733 40.2609 23.7126 39.8882 22.1969ZM116.31 25.866C115.515 25.866 114.861 26.2056 114.364 26.8682C113.958 27.3983 113.709 28.0277 113.635 28.7649H118.737C118.753 28.0443 118.596 27.4148 118.265 26.8847C117.834 26.2139 117.18 25.866 116.31 25.866ZM50.6802 14.9995C50.7133 14.8918 50.7133 14.7924 50.7133 14.6847V13.9062C49.7028 13.8979 48.7338 14.105 48.7338 14.9663C48.7338 15.5295 49.0982 15.7863 49.5455 15.7863C50.1335 15.778 50.5394 15.4053 50.6802 14.9995ZM37.3206 11.4297C37.1715 10.9494 37.039 10.4193 36.923 9.96376H36.8982C36.7822 10.4193 36.658 10.9659 36.5255 11.4297L35.9209 13.3678H37.9335L37.3206 11.4297ZM126.216 0H5.56579C2.50129 0 0 2.49301 0 5.56579V40.236C0 43.3005 2.50129 45.7935 5.56579 45.7935H126.216C129.289 45.7935 131.782 43.3005 131.782 40.236V5.56579C131.79 2.49301 129.289 0 126.216 0ZM118.571 10.8748C120.41 10.8748 121.023 12.3905 121.023 13.6329C121.023 13.8979 120.998 14.1133 120.973 14.2375H117.171C117.205 15.2645 118 15.7035 118.919 15.7035C119.582 15.7035 120.054 15.6041 120.493 15.4467L120.7 16.424C120.211 16.6311 119.532 16.7885 118.72 16.7885C116.882 16.7885 115.797 15.6621 115.797 13.9228C115.797 12.3491 116.749 10.8748 118.571 10.8748ZM95.8276 10.9991L95.8939 11.8521H95.927C96.1838 11.4049 96.7967 10.8748 97.7409 10.8748C98.7348 10.8748 99.7535 11.5126 99.7535 13.3099V16.6808H98.3207V13.4755C98.3207 12.6638 98.0142 12.0426 97.2357 12.0426C96.6642 12.0426 96.2666 12.4485 96.1175 12.8792C96.0678 12.9951 96.0513 13.1691 96.0513 13.3347V16.6808H94.6184V12.6887C94.6184 12.0344 94.5936 11.4877 94.5687 10.9991H95.8276ZM80.7702 10.8748C82.6089 10.8748 83.2218 12.3905 83.2218 13.6329C83.2218 13.8979 83.197 14.1133 83.1721 14.2375H79.3705C79.4036 15.2645 80.1987 15.7035 81.1181 15.7035C81.7807 15.7035 82.2445 15.6041 82.6917 15.4467L82.8988 16.424C82.4101 16.6311 81.731 16.7885 80.9193 16.7885C79.0806 16.7885 77.9956 15.6621 77.9956 13.9228C77.9956 12.3491 78.9563 10.8748 80.7702 10.8748ZM74.898 8.39838H76.3308V16.6725H74.898V8.39838ZM63.5345 11.8853C62.9713 11.8853 62.3915 12.0592 62.0105 12.3077L61.7289 11.3718C62.1513 11.115 62.8802 10.8748 63.783 10.8748C65.6051 10.8748 66.1269 12.0261 66.1269 13.2767V15.3142C66.1269 15.8277 66.1517 16.3247 66.218 16.6808H64.9259L64.8183 16.0513H64.7851C64.4455 16.4903 63.8492 16.8133 63.1038 16.8133C61.9608 16.8133 61.3231 15.9851 61.3231 15.1237C61.3231 13.6991 62.5903 12.9703 64.694 12.9786V12.8875C64.6857 12.5065 64.5284 11.8853 63.5345 11.8853ZM55.0533 8.63029C55.5419 8.63029 55.8484 8.96987 55.8567 9.40883C55.8567 9.83124 55.5419 10.1791 55.0367 10.1791C54.5563 10.1791 54.2416 9.83124 54.2416 9.40883C54.2499 8.96987 54.5812 8.63029 55.0533 8.63029ZM55.7656 10.9991V16.6725H54.3327V10.9991H55.7656ZM36.0534 8.82078H37.8838L40.4348 16.6725H38.886L38.1737 14.4445H35.689L35.0098 16.6725H33.5273L36.0534 8.82078ZM26.5038 34.8607C26.5038 36.2439 25.3773 37.3703 23.9942 37.3703H13.227C11.8439 37.3703 10.7175 36.2522 10.7175 34.8607V10.9494C10.7175 9.5662 11.8439 8.43979 13.227 8.43979H23.9942C25.3773 8.43979 26.5038 9.5662 26.5038 10.9494V34.8607ZM43.8057 35.4405L42.3812 30.9514H37.4117L36.0534 35.4405H33.519L38.4305 20.1594H41.4701L46.4147 35.4405H43.8057ZM44.3607 16.6725H42.9527L40.8406 10.9991H42.3894L43.3088 13.8813C43.4744 14.3783 43.5904 14.8338 43.6898 15.3059H43.7229C43.8306 14.8421 43.9548 14.3949 44.1039 13.8813L45.015 10.9991H46.5224L44.3607 16.6725ZM47.3175 15.1154C47.3175 13.6908 48.5847 12.962 50.6884 12.9703V12.8792C50.6884 12.5065 50.5394 11.8853 49.5372 11.8853C48.974 11.8853 48.3942 12.0592 48.0132 12.3077L47.7316 11.3718C48.154 11.115 48.8829 10.8748 49.7857 10.8748C51.5995 10.8748 52.1296 12.0261 52.1296 13.2767V15.3142C52.1296 15.8277 52.1544 16.3247 52.2207 16.6808H50.9286L50.821 16.0513H50.7878C50.4482 16.4903 49.8519 16.8133 49.1065 16.8133C47.9552 16.805 47.3175 15.9768 47.3175 15.1154ZM56.9003 34.2395C55.9892 35.2003 54.8545 35.689 53.5045 35.689C52.0385 35.689 50.9949 35.1672 50.3571 34.1236V39.913H47.9138V28.0443C47.9138 26.8682 47.8807 25.659 47.8227 24.4249H49.9761L50.1087 26.1725H50.1501C50.97 24.8638 52.2041 24.2012 53.8689 24.2012C55.1692 24.2012 56.2542 24.7148 57.1239 25.7418C57.9935 26.7688 58.4242 28.1188 58.4242 29.8002C58.4325 31.672 57.919 33.1545 56.9003 34.2395ZM59.4512 16.6725H58.0184V8.39838H59.4512V16.6725ZM69.0092 34.2395C68.0981 35.2003 66.9634 35.689 65.6134 35.689C64.1557 35.689 63.1038 35.1672 62.4743 34.1236V39.913H60.0227V28.0443C60.0227 26.8682 59.9896 25.659 59.9316 24.4249H62.0768L62.2176 26.1725H62.259C63.0789 24.8638 64.313 24.2012 65.9778 24.2012C67.2781 24.2012 68.3631 24.7148 69.2328 25.7418C70.1024 26.7688 70.5414 28.1188 70.5414 29.8002C70.5331 31.672 70.0279 33.1545 69.0092 34.2395ZM70.6905 16.805C69.9534 16.805 69.3073 16.5234 68.8932 15.8277H68.8684L68.8021 16.6808H67.5763C67.6011 16.2998 67.626 15.6703 67.626 15.0823V8.40666H69.0589V11.7859H69.0837C69.4316 11.2393 70.0527 10.8748 70.9058 10.8748C72.289 10.8748 73.2829 12.0261 73.2746 13.7488C73.2663 15.7863 71.966 16.805 70.6905 16.805ZM83.0147 34.3307C82.0126 35.2252 80.6294 35.6641 78.8487 35.6641C77.2005 35.6641 75.8836 35.3494 74.8897 34.7116L75.4612 32.6742C76.5296 33.3036 77.714 33.6266 78.9895 33.6266C79.9171 33.6266 80.6294 33.4196 81.1429 33.0055C81.6564 32.5913 81.9132 32.0364 81.9132 31.3324C81.9132 30.7195 81.6978 30.1977 81.2837 29.7753C80.853 29.3529 80.1573 28.9636 79.18 28.5992C76.5048 27.6053 75.1713 26.1476 75.1713 24.2261C75.1713 22.9754 75.6351 21.9401 76.5876 21.1367C77.5318 20.3416 78.7824 19.9358 80.3395 19.9358C81.731 19.9358 82.8822 20.176 83.8099 20.6564L83.1887 22.6524C82.3273 22.1886 81.35 21.9484 80.2567 21.9484C79.3953 21.9484 78.7162 22.1638 78.2275 22.5779C77.8217 22.9589 77.6146 23.4227 77.6146 23.9611C77.6146 24.5574 77.8465 25.0626 78.3186 25.4602C78.7244 25.8246 79.4699 26.2139 80.5383 26.6363C81.8552 27.1581 82.8242 27.7875 83.4454 28.4998C84.0666 29.2121 84.3731 30.09 84.3731 31.1502C84.3648 32.4505 83.9092 33.5107 83.0147 34.3307ZM91.645 26.2553H88.945V31.614C88.945 32.9723 89.4253 33.6515 90.3778 33.6515C90.8168 33.6515 91.1729 33.6184 91.4628 33.5438L91.5291 35.3991C91.0487 35.5813 90.4109 35.6724 89.6241 35.6724C88.6634 35.6724 87.9014 35.3825 87.3547 34.7862C86.8081 34.1981 86.5348 33.2042 86.5348 31.8211V26.2636H84.928V24.4332H86.5348V22.4205L88.9367 21.6917V24.4332H91.6367V26.2553H91.645ZM90.2619 16.805C88.6634 16.805 87.421 15.7118 87.421 13.8813C87.421 12.0178 88.6468 10.8748 90.3612 10.8748C92.0509 10.8748 93.1856 12.0675 93.1856 13.7902C93.1773 15.8691 91.703 16.805 90.2619 16.805ZM101.692 34.0159C100.673 35.134 99.3311 35.689 97.6581 35.689C96.0347 35.689 94.7426 35.1506 93.7902 34.0822C92.8294 33.0137 92.3573 31.6554 92.3573 30.0238C92.3573 28.3176 92.8543 26.9179 93.8399 25.8329C94.8338 24.7396 96.1589 24.2012 97.8403 24.2012C99.4636 24.2012 100.764 24.7313 101.741 25.808C102.677 26.8433 103.141 28.1934 103.141 29.8416C103.133 31.5395 102.652 32.9226 101.692 34.0159ZM104.218 10.9991H105.021V9.93891L106.429 9.54135V10.9991H107.796V12.0675H106.429V14.5771C106.429 15.2728 106.611 15.6289 107.166 15.6289C107.423 15.6289 107.564 15.6207 107.729 15.571L107.754 16.656C107.547 16.7388 107.158 16.805 106.719 16.805C106.181 16.805 105.75 16.6311 105.485 16.3412C105.17 16.0182 105.029 15.4881 105.029 14.7427V12.0758H104.226V10.9991H104.218ZM110.504 26.57C110.264 26.5286 110.007 26.5038 109.734 26.5038C108.872 26.5038 108.21 26.8268 107.738 27.4728C107.332 28.0526 107.125 28.7649 107.125 29.6428V35.4239H104.673V27.8704C104.673 26.6114 104.648 25.4519 104.607 24.4083H106.736L106.827 26.5203H106.893C107.15 25.7998 107.556 25.2117 108.119 24.781C108.665 24.3835 109.253 24.193 109.891 24.193C110.115 24.193 110.322 24.2012 110.496 24.2344V26.57H110.504ZM110.877 13.2684V16.6725H109.444V8.39838H110.877V11.7693H110.902C111.076 11.5043 111.324 11.2807 111.614 11.1316C111.904 10.9659 112.243 10.8748 112.608 10.8748C113.577 10.8748 114.587 11.5126 114.587 13.3347V16.6808H113.154V13.4921C113.154 12.6721 112.848 12.0426 112.061 12.0426C111.498 12.0426 111.109 12.4154 110.943 12.846C110.885 12.9703 110.877 13.1194 110.877 13.2684ZM120.981 30.5207H113.635C113.668 31.6057 114.016 32.434 114.703 33.0055C115.324 33.519 116.12 33.7757 117.105 33.7757C118.198 33.7757 119.184 33.6018 120.079 33.2539L120.468 34.9601C119.433 35.4156 118.19 35.6393 116.774 35.6393C115.068 35.6393 113.726 35.1423 112.757 34.1319C111.78 33.1297 111.291 31.7797 111.291 30.09C111.291 28.4253 111.746 27.0421 112.649 25.9406C113.61 24.7644 114.894 24.1764 116.509 24.1764C118.099 24.1764 119.3 24.7644 120.112 25.9406C120.758 26.8765 121.089 28.036 121.089 29.4109C121.064 29.8499 121.039 30.2143 120.981 30.5207ZM70.3758 11.993C69.796 11.993 69.2576 12.4154 69.1086 13.0448C69.0837 13.1525 69.0589 13.2767 69.0589 13.4175V14.3369C69.0589 14.4528 69.0671 14.5688 69.092 14.6765C69.2411 15.2562 69.7463 15.6786 70.3592 15.6786C71.2537 15.6786 71.8086 14.9663 71.8086 13.8151C71.8086 12.8046 71.3282 11.993 70.3758 11.993ZM80.6874 11.8521C79.8012 11.8521 79.4285 12.6555 79.3705 13.2353H81.8635C81.88 12.7135 81.6481 11.8521 80.6874 11.8521ZM90.3198 11.9101C89.3094 11.9101 88.8953 12.904 88.8953 13.8482C88.8953 14.9415 89.4419 15.7697 90.3033 15.7697C91.1149 15.7697 91.6864 14.9746 91.6864 13.8234C91.6947 12.9371 91.2972 11.9101 90.3198 11.9101ZM62.7394 14.9581C62.7394 15.5213 63.1038 15.778 63.551 15.778C64.1308 15.778 64.5449 15.4053 64.6857 14.9995C64.7189 14.8918 64.7189 14.7924 64.7189 14.6847V13.9062C63.7084 13.8896 62.7394 14.0967 62.7394 14.9581ZM118.488 11.8521C117.602 11.8521 117.229 12.6555 117.171 13.2353H119.664C119.673 12.7135 119.441 11.8521 118.488 11.8521Z" fill="#382F2D"/>
</svg>