<svg width="140" height="46" viewBox="0 0 140 46" fill="none" xmlns="http://www.w3.org/2000/svg">
<path d="M60.4948 9.74011C60.2049 9.74011 59.9647 9.86435 59.766 10.1211C59.5672 10.3779 59.4678 10.7009 59.4678 11.0901C59.4678 11.496 59.5755 11.8273 59.7825 12.084C59.9896 12.3408 60.2546 12.465 60.5528 12.465C60.8427 12.465 61.0829 12.3325 61.2817 12.0758C61.4804 11.819 61.5798 11.496 61.5798 11.1067C61.5798 10.7009 61.4721 10.3613 61.2651 10.1128C61.0663 9.86435 60.8096 9.74011 60.4948 9.74011Z" fill="#382F2D"/>
<path d="M66.1848 9.75671C66.102 9.75671 65.9861 9.765 65.837 9.78156C65.8535 10.1708 65.8701 10.585 65.8701 11.0074C65.8701 11.4795 65.8784 11.9433 65.9032 12.3988C66.0275 12.4237 66.16 12.4402 66.2842 12.4402C66.7066 12.4402 67.0214 12.3077 67.2201 12.0509C67.4189 11.7859 67.5266 11.4712 67.5266 11.0985C67.5266 10.7258 67.4189 10.4027 67.1953 10.146C66.9717 9.88923 66.6321 9.75671 66.1848 9.75671Z" fill="#382F2D"/>
<path d="M75.8007 9.72351C75.6599 9.72351 75.5109 9.74008 75.3618 9.76492C75.3866 10.1376 75.3949 10.5518 75.3949 11.0239C75.4446 11.0239 75.5026 11.0321 75.5688 11.0321C76.2811 11.0321 76.6373 10.8085 76.6373 10.353C76.6373 9.93057 76.3639 9.72351 75.8007 9.72351Z" fill="#382F2D"/>
<path d="M72.0654 9.71533C72.0654 9.78987 71.8914 10.3365 71.5436 11.3553H72.612C72.2807 10.3448 72.1068 9.79816 72.1068 9.71533H72.0654Z" fill="#382F2D"/>
<path d="M44.311 9.71533C44.311 9.78987 44.137 10.3365 43.7892 11.3553H44.8576C44.5263 10.3448 44.3524 9.79816 44.3524 9.71533H44.311Z" fill="#382F2D"/>
<path d="M56.337 9.72351C56.1548 9.72351 55.9892 9.74008 55.8484 9.76492C55.8732 10.0714 55.8815 10.4606 55.8815 10.9493C55.9892 10.9493 56.0803 10.9576 56.1548 10.9576C56.776 10.9576 57.0908 10.7422 57.0908 10.3116C57.0825 9.92229 56.834 9.72351 56.337 9.72351Z" fill="#382F2D"/>
<path d="M52.1213 9.75671C52.0385 9.75671 51.9225 9.765 51.7734 9.78156C51.79 10.1708 51.8066 10.585 51.8066 11.0074C51.8066 11.4795 51.8148 11.9433 51.8397 12.3988C51.9639 12.4237 52.0964 12.4402 52.2207 12.4402C52.6431 12.4402 52.9578 12.3077 53.1566 12.0509C53.3554 11.7859 53.463 11.4712 53.463 11.0985C53.463 10.7258 53.3554 10.4027 53.1318 10.146C52.9081 9.88923 52.5768 9.75671 52.1213 9.75671Z" fill="#382F2D"/>
<path d="M84.7789 9.74011C84.489 9.74011 84.2488 9.86435 84.05 10.1211C83.8513 10.3779 83.7519 10.7009 83.7519 11.0901C83.7519 11.496 83.8595 11.8273 84.0666 12.084C84.2737 12.3408 84.5387 12.465 84.8369 12.465C85.1267 12.465 85.3669 12.3325 85.5657 12.0758C85.7645 11.819 85.8639 11.496 85.8639 11.1067C85.8639 10.7009 85.7562 10.3613 85.5492 10.1128C85.3504 9.86435 85.0853 9.74011 84.7789 9.74011Z" fill="#382F2D"/>
<path d="M79.3291 9.72351C79.1883 9.72351 79.0392 9.74008 78.8901 9.76492C78.9149 10.1376 78.9232 10.5518 78.9232 11.0239C78.9729 11.0239 79.0309 11.0321 79.0972 11.0321C79.8094 11.0321 80.1656 10.8085 80.1656 10.353C80.1656 9.93057 79.884 9.72351 79.3291 9.72351Z" fill="#382F2D"/>
<path d="M71.6678 23.5055C70.8478 23.5055 70.1355 23.8119 69.5309 24.4248C68.9263 25.0377 68.6281 25.8494 68.6281 26.8682C68.6281 27.8786 68.9263 28.6903 69.5309 29.3115C70.1355 29.9244 70.8478 30.2308 71.6678 30.2308C72.4878 30.2308 73.2001 29.9244 73.8047 29.3115C74.4093 28.6986 74.7075 27.8869 74.7075 26.8682C74.7075 25.8577 74.4093 25.046 73.8047 24.4248C73.2001 23.8119 72.4878 23.5055 71.6678 23.5055Z" fill="#382F2D"/>
<path d="M61.5136 23.5055C60.6936 23.5055 59.9813 23.8119 59.3767 24.4248C58.7721 25.0377 58.4739 25.8494 58.4739 26.8682C58.4739 27.8786 58.7721 28.6903 59.3767 29.3115C59.9813 29.9244 60.6853 30.2308 61.5136 30.2308C62.3335 30.2308 63.0458 29.9244 63.6504 29.3115C64.2551 28.6986 64.5532 27.8869 64.5532 26.8682C64.5532 25.8577 64.2551 25.046 63.6504 24.4248C63.0458 23.8119 62.3335 23.5055 61.5136 23.5055Z" fill="#382F2D"/>
<path d="M109.717 19.588H106.794V24.3338H109.717C110.454 24.3338 111.042 24.0854 111.481 23.5967C111.929 23.0998 112.144 22.5614 112.144 21.9651C112.144 21.3687 111.92 20.8221 111.481 20.3334C111.042 19.8365 110.446 19.588 109.717 19.588Z" fill="#382F2D"/>
<path d="M120.311 27.4563C119.88 27.8207 119.664 28.2514 119.664 28.7483C119.664 29.2039 119.863 29.5683 120.253 29.8333C120.642 30.0984 121.097 30.2309 121.603 30.2309C122.323 30.2309 122.977 29.9576 123.565 29.4275C124.154 28.8891 124.452 28.2514 124.452 27.5225C123.955 27.1167 123.218 26.9179 122.232 26.9179C121.379 26.9013 120.741 27.0836 120.311 27.4563Z" fill="#382F2D"/>
<path d="M95.3224 23.5055C94.6764 23.5055 94.1132 23.7043 93.6411 24.1101C93.169 24.516 92.8377 25.0626 92.6638 25.7417H98.0556C98.0142 25.2117 97.774 24.7064 97.3268 24.2261C96.8795 23.7457 96.2086 23.5055 95.3224 23.5055Z" fill="#382F2D"/>
<path d="M81.7475 23.5055C80.9359 23.5055 80.2401 23.8119 79.6604 24.4248C79.0806 25.0377 78.7907 25.8494 78.7907 26.8682C78.7907 27.8786 79.0806 28.6903 79.6604 29.3115C80.2401 29.9244 80.9359 30.2308 81.7475 30.2308C82.5675 30.2308 83.2715 29.9244 83.843 29.3198C84.4228 28.7151 84.7043 27.8952 84.7043 26.8682C84.7043 25.8411 84.4145 25.0295 83.843 24.4166C83.2715 23.8037 82.5758 23.5055 81.7475 23.5055Z" fill="#382F2D"/>
<path d="M133.72 0H6.18697C2.77461 0 0 2.76633 0 6.18697V39.5817C0 42.9941 2.76633 45.7687 6.18697 45.7687H133.72C137.132 45.7687 139.907 43.0023 139.907 39.5817V6.18697C139.898 2.76633 137.132 0 133.72 0ZM78.1281 9.18521H78.6416C78.7162 9.18521 78.857 9.18521 79.0557 9.17693C79.2628 9.16864 79.4367 9.16864 79.5941 9.16864C79.9668 9.16864 80.2815 9.25147 80.5383 9.4254C80.795 9.59105 80.9193 9.8478 80.9193 10.1957C80.9193 10.6678 80.7454 11.0073 80.3975 11.231C80.0496 11.4546 79.6272 11.5623 79.1137 11.5623C79.0226 11.5623 78.9564 11.5623 78.9149 11.554C78.9149 11.9184 78.9232 12.4071 78.9481 13.0117H78.1198C78.1447 12.4485 78.1612 11.7776 78.1612 11.0073C78.1695 10.3033 78.153 9.69872 78.1281 9.18521ZM70.9307 11.1316C71.3862 9.95547 71.6181 9.30945 71.6181 9.18521H72.728C72.728 9.29288 72.935 9.93891 73.3491 11.0984C73.7633 12.2663 73.9703 12.904 73.9703 13.0034H73.0261C73.0261 12.8709 72.935 12.5065 72.7611 11.9018H71.4028C71.2206 12.4982 71.1295 12.8626 71.1295 13.0034H70.2432C70.2432 12.9371 70.4752 12.3077 70.9307 11.1316ZM65.0916 9.18521H65.6051C65.6879 9.18521 65.8121 9.18521 65.9778 9.17693C66.1434 9.16864 66.2511 9.16864 66.3008 9.16864C67.0048 9.16864 67.5183 9.34258 67.8413 9.69872C68.1561 10.0549 68.3217 10.4773 68.3217 10.9659C68.3217 11.5209 68.1395 12.0095 67.7834 12.4236C67.4272 12.8378 66.9303 13.0448 66.2842 13.0448C65.9944 13.0448 65.5968 13.0365 65.0833 13.0117C65.1081 12.4236 65.1247 11.7528 65.1247 11.0073C65.1247 10.2951 65.1164 9.69044 65.0916 9.18521ZM63.228 9.18521H64.0563C64.0314 9.68215 64.0149 10.2868 64.0149 11.0073C64.0149 11.7445 64.0314 12.4154 64.0563 13.0117H63.228C63.2529 12.4071 63.2694 11.7362 63.2694 11.0073C63.2694 10.2951 63.2529 9.69044 63.228 9.18521ZM59.2111 9.69044C59.5755 9.29288 60.031 9.0941 60.5777 9.0941C61.0912 9.0941 61.5301 9.27632 61.878 9.64074C62.2259 10.0052 62.3998 10.469 62.3998 11.0239C62.3998 11.6285 62.2176 12.1255 61.8449 12.523C61.4804 12.9206 61.0249 13.1194 60.4783 13.1194C59.9648 13.1194 59.5258 12.9371 59.1779 12.5727C58.8301 12.2083 58.6561 11.7445 58.6561 11.1896C58.6561 10.5849 58.8466 10.088 59.2111 9.69044ZM51.028 9.18521H51.5415C51.6243 9.18521 51.7486 9.18521 51.9142 9.17693C52.0799 9.16864 52.1876 9.16864 52.2373 9.16864C52.9413 9.16864 53.4548 9.34258 53.7778 9.69872C54.0925 10.0549 54.2582 10.4773 54.2582 10.9659C54.2582 11.5209 54.0759 12.0095 53.7198 12.4236C53.3637 12.8378 52.8667 13.0448 52.2207 13.0448C51.9308 13.0448 51.5332 13.0365 51.0197 13.0117C51.0446 12.4236 51.0612 11.7528 51.0612 11.0073C51.0694 10.2951 51.0529 9.69044 51.028 9.18521ZM46.8537 9.18521H47.7233C47.7233 9.29288 47.9635 9.707 48.4522 10.4276C48.9657 11.1978 49.2639 11.7196 49.3384 11.993H49.3798C49.3301 11.554 49.3053 11.1647 49.3053 10.8168C49.3053 10.2868 49.2887 9.74013 49.2639 9.18521H50.001C49.9761 9.67387 49.9596 10.2785 49.9596 11.0073C49.9596 11.7445 49.9761 12.4071 50.001 13.0117H49.2721C49.2721 12.9289 48.9988 12.5065 48.4605 11.7362C47.8973 10.9245 47.5742 10.3779 47.4997 10.0797H47.45C47.4997 10.5104 47.5246 10.8997 47.5246 11.2393C47.5246 11.7196 47.5411 12.316 47.566 13.0117H46.8454C46.8785 12.4071 46.8868 11.7362 46.8868 11.0073C46.8951 10.2951 46.8785 9.69044 46.8537 9.18521ZM43.1763 11.1316C43.6318 9.95547 43.8637 9.30945 43.8637 9.18521H44.9736C44.9736 9.29288 45.1806 9.93891 45.5947 11.0984C46.0089 12.2663 46.2159 12.904 46.2159 13.0034H45.2717C45.2717 12.8709 45.1806 12.5065 45.0067 11.9018H43.6484C43.4662 12.4982 43.3751 12.8626 43.3751 13.0034H42.4888C42.4888 12.9371 42.7207 12.3077 43.1763 11.1316ZM12.1917 9.78154C18.1385 13.1111 24.0853 16.4489 30.0321 19.7701C30.3054 19.9192 30.2971 20.0103 30.09 20.2174C28.7566 21.526 27.4397 22.8429 26.1228 24.1681C25.982 24.3089 25.8909 24.3917 25.7004 24.2012C20.9711 19.3726 16.2336 14.5605 11.496 9.74013C11.4546 9.69872 11.4215 9.64902 11.3469 9.54964C11.7031 9.54135 11.9515 9.64074 12.1917 9.78154ZM10.3613 39.1593C9.86438 38.7783 9.67388 38.2648 9.67388 37.6519C9.67388 35.0761 9.67387 32.5085 9.66559 29.9327C9.66559 28.1105 9.66559 26.2967 9.66559 24.4746H9.67388C9.67388 20.1346 9.67388 15.7863 9.67388 11.4463C9.67388 10.9162 9.77327 10.4276 10.1543 10.0217C10.3033 9.86437 10.4027 9.82296 10.5849 10.0052C13.5086 12.9868 16.4323 15.9602 19.3643 18.9336C21.261 20.8634 23.1577 22.785 25.0626 24.7065C25.2448 24.8887 25.2614 24.9881 25.0709 25.1869C20.4162 29.8167 15.7615 34.4549 11.1233 39.1013C10.8334 39.3995 10.6346 39.3746 10.3613 39.1593ZM29.5186 29.7256C23.9776 32.757 18.4367 35.8049 12.904 38.8446C12.8129 38.8943 12.7301 38.9771 12.6804 39.0102C16.9955 34.6454 21.319 30.2888 25.6258 25.9157C25.8909 25.6424 26.0151 25.6838 26.2553 25.9323C27.3486 27.0752 28.4584 28.1934 29.5765 29.3115C29.767 29.502 29.7836 29.5848 29.5186 29.7256ZM36.7326 25.7004C36.4758 25.8909 36.1859 26.0482 35.9043 26.2056C34.2313 27.1332 32.5499 28.0526 30.8769 28.9802C30.6533 29.1044 30.5207 29.1044 30.3302 28.9057C29.1376 27.6799 27.9366 26.4541 26.7357 25.2448C26.5617 25.0709 26.5535 24.9715 26.7357 24.7976C28.1437 23.4144 29.5434 22.0147 30.9349 20.615C31.1005 20.4493 31.2165 20.4327 31.4235 20.5487C33.08 21.4846 34.7448 22.4122 36.4013 23.3399C36.9148 23.6298 37.3123 24.0025 37.3372 24.6071C37.3123 25.0957 37.0887 25.4436 36.7326 25.7004ZM54.3161 29.8084C53.0406 31.1502 51.3759 31.8211 49.3218 31.8211C47.3589 31.8211 45.6941 31.1419 44.3193 29.7836C42.9444 28.4253 42.2569 26.7357 42.2569 24.723C42.2569 22.7104 42.9444 21.0208 44.3193 19.6625C45.6941 18.3042 47.3589 17.625 49.3218 17.625C50.2992 17.625 51.2268 17.8155 52.113 18.1965C52.9992 18.5775 53.7115 19.0827 54.2416 19.7122L53.0489 20.9048C52.1461 19.8281 50.9121 19.2898 49.3301 19.2898C47.8973 19.2898 46.6632 19.795 45.6196 20.7972C44.576 21.7993 44.0542 23.108 44.0542 24.7148C44.0542 26.3215 44.576 27.6302 45.6196 28.6323C46.6632 29.6345 47.8973 30.1397 49.3301 30.1397C50.8458 30.1397 52.113 29.6345 53.1318 28.6241C53.7861 27.9697 54.1671 27.0504 54.2747 25.8743H49.3384V24.2427H55.9312C55.9975 24.5988 56.0223 24.9384 56.0223 25.2697C56.0058 27.1664 55.4426 28.682 54.3161 29.8084ZM55.8815 11.4877C55.8815 11.993 55.8898 12.4982 55.9064 13.0117H55.0864C55.1113 12.4236 55.1278 11.7528 55.1278 11.0073C55.1278 10.2951 55.1113 9.68215 55.0864 9.18521H55.5916C55.6496 9.18521 55.7738 9.18521 55.9643 9.17693C56.1548 9.16864 56.3205 9.16864 56.4861 9.16864C57.3889 9.16864 57.8362 9.47509 57.8362 10.088C57.8362 10.5767 57.5794 10.9162 57.0659 11.1067V11.1481C57.2647 11.2061 57.4386 11.3552 57.5877 11.612C57.7368 11.8687 57.9356 12.3325 58.1923 13.0034H57.3227C57.099 12.3077 56.9251 11.8853 56.8009 11.7196C56.6766 11.554 56.4861 11.4794 56.2128 11.4794C56.0969 11.4877 55.9892 11.4877 55.8815 11.4877ZM64.9425 30.4048C64.0397 31.349 62.8967 31.8211 61.5053 31.8211C60.1138 31.8211 58.9709 31.349 58.0681 30.4048C57.1653 29.4606 56.718 28.2845 56.718 26.8599C56.718 25.4436 57.1653 24.2592 58.0681 23.315C58.9626 22.3708 60.1138 21.8987 61.5053 21.8987C62.8967 21.8987 64.0397 22.3708 64.9425 23.315C65.837 24.2592 66.2925 25.4353 66.2925 26.8599C66.2925 28.2845 65.8453 29.4606 64.9425 30.4048ZM75.105 30.4048C74.2022 31.349 73.0593 31.8211 71.6678 31.8211C70.2764 31.8211 69.1334 31.349 68.2306 30.4048C67.3278 29.4606 66.8806 28.2845 66.8806 26.8599C66.8806 25.4436 67.3278 24.2592 68.2306 23.315C69.1251 22.3708 70.2764 21.8987 71.6678 21.8987C73.0593 21.8987 74.2022 22.3708 75.105 23.315C75.9995 24.2592 76.4551 25.4353 76.4551 26.8599C76.4551 28.2845 75.9995 29.4606 75.105 30.4048ZM75.5937 11.5623C75.5026 11.5623 75.4363 11.5623 75.3949 11.554C75.3949 11.9184 75.4032 12.4071 75.428 13.0117H74.5998C74.6246 12.4485 74.6412 11.7776 74.6412 11.0073C74.6412 10.3033 74.6246 9.69044 74.5998 9.18521H75.1133C75.1879 9.18521 75.3287 9.18521 75.5274 9.17693C75.7345 9.16864 75.9084 9.16864 76.0658 9.16864C76.4385 9.16864 76.7532 9.25147 77.01 9.4254C77.2667 9.59105 77.391 9.8478 77.391 10.1957C77.391 10.6678 77.217 11.0073 76.8692 11.231C76.5296 11.4463 76.0989 11.5623 75.5937 11.5623ZM86.3857 31.0425C86.3857 32.641 85.9219 33.8503 85.0025 34.6785C84.0749 35.5068 82.9485 35.9209 81.6233 35.9209C80.5217 35.9209 79.6272 35.6476 78.9232 35.0926C78.2275 34.5377 77.7306 33.9082 77.4241 33.2042L79.0226 32.5416C79.1965 33.0469 79.5278 33.4693 79.9999 33.8171C80.472 34.1567 81.0187 34.3307 81.6233 34.3307C82.584 34.3307 83.3378 34.0408 83.8927 33.4693C84.4476 32.8895 84.7209 32.111 84.7209 31.1254V30.2309H84.6464C84.3399 30.6864 83.9092 31.0674 83.3543 31.3738C82.7994 31.6803 82.1699 31.8294 81.4742 31.8294C80.2733 31.8294 79.2297 31.3573 78.36 30.4048C77.4904 29.4523 77.0514 28.2762 77.0514 26.8765C77.0514 25.4685 77.4904 24.2924 78.36 23.3482C79.2297 22.3957 80.2733 21.9236 81.4742 21.9236C82.1699 21.9236 82.7994 22.0727 83.3543 22.3791C83.9092 22.6856 84.3399 23.0666 84.6464 23.5221H84.7209V22.23H86.394V31.0425H86.3857ZM86.1289 12.523C85.7645 12.9206 85.309 13.1194 84.7623 13.1194C84.2488 13.1194 83.8098 12.9371 83.462 12.5727C83.1141 12.2083 82.9402 11.7445 82.9402 11.1896C82.9402 10.5849 83.1224 10.088 83.4951 9.69044C83.8595 9.29288 84.3151 9.0941 84.8617 9.0941C85.3752 9.0941 85.8142 9.27632 86.1621 9.64074C86.5099 10.0052 86.6839 10.469 86.6839 11.0239C86.6839 11.6285 86.5016 12.1255 86.1289 12.523ZM89.7815 31.5146H88.0339V17.9232H89.7815V31.5146ZM90.6677 13.0117H89.9388C89.9388 12.9289 89.6655 12.5065 89.1272 11.7362C88.564 10.9245 88.241 10.3779 88.1664 10.0797H88.1167C88.1664 10.5104 88.1913 10.8997 88.1913 11.2393C88.1913 11.7196 88.2078 12.316 88.2327 13.0117H87.5121C87.5452 12.4071 87.5535 11.7362 87.5535 11.0073C87.5535 10.2951 87.5369 9.68215 87.5121 9.18521H88.3817C88.3817 9.29288 88.6219 9.707 89.1106 10.4276C89.6241 11.1978 89.9223 11.7196 89.9968 11.993H90.0382C89.9885 11.554 89.9637 11.1647 89.9637 10.8168C89.9637 10.2868 89.9471 9.74013 89.9223 9.18521H90.6594C90.6346 9.67387 90.618 10.2785 90.618 11.0073C90.6263 11.7445 90.6346 12.4154 90.6677 13.0117ZM99.9026 27.1829H92.5561C92.6058 28.1188 92.9205 28.8643 93.492 29.4026C94.0718 29.9492 94.7427 30.2226 95.5129 30.2226C96.7636 30.2226 97.6167 29.6925 98.0556 28.6241L99.6127 29.2701C99.3063 29.9907 98.8093 30.5953 98.1136 31.0839C97.4179 31.5726 96.5648 31.8128 95.5543 31.8128C94.1463 31.8128 93.0033 31.3407 92.1254 30.4048C91.2475 29.4689 90.8085 28.2845 90.8085 26.8516C90.8085 25.4933 91.2392 24.3338 92.0923 23.3564C92.9454 22.3791 94.0387 21.8987 95.3638 21.8987C96.747 21.8987 97.8486 22.346 98.6768 23.2488C99.5051 24.1433 99.9192 25.3525 99.9192 26.8599L99.9026 27.1829ZM112.666 24.8638C111.821 25.6258 110.827 26.0151 109.676 26.0151H106.794V31.5229H105.046V17.9232H109.676C110.827 17.9232 111.821 18.3042 112.666 19.0744C113.511 19.8447 113.925 20.8055 113.925 21.9733C113.933 23.1328 113.511 24.0936 112.666 24.8638ZM116.815 31.5146H115.068V17.9232H116.815V31.5146ZM126.116 31.5146H124.443V30.2226H124.369C123.673 31.2827 122.654 31.8211 121.313 31.8211C120.327 31.8211 119.499 31.5395 118.836 30.968C118.174 30.3965 117.842 29.6428 117.842 28.7069C117.842 27.6964 118.232 26.9013 119.018 26.3215C119.805 25.7418 120.774 25.4602 121.926 25.4602C122.953 25.4602 123.789 25.6507 124.452 26.0317V25.7666C124.452 25.0792 124.22 24.5325 123.748 24.1267C123.276 23.7126 122.704 23.5055 122.017 23.5055C121.511 23.5055 121.048 23.6298 120.642 23.8699C120.228 24.1101 119.946 24.4414 119.797 24.8556L118.198 24.1681C118.414 23.6132 118.836 23.0997 119.474 22.6193C120.103 22.1472 120.94 21.907 121.984 21.907C123.176 21.907 124.162 22.2549 124.949 22.9506C125.735 23.6463 126.125 24.6319 126.125 25.8909V31.5146H126.116ZM129.918 35.6144H128.113L130.274 30.9266L126.439 22.2135H128.336L131.111 28.8974H131.152L133.844 22.2135H135.741L129.918 35.6144Z" fill="#382F2D"/>
</svg>