<svg width="89" height="29" viewBox="0 0 89 29" fill="none" xmlns="http://www.w3.org/2000/svg">
<path d="M0 1.25616H5.35832C7.80195 1.25616 9.56843 1.59965 10.6676 2.29642C11.7667 2.9932 12.3163 4.09235 12.3163 5.61348C12.3163 6.64393 12.0709 7.48791 11.5901 8.14544C11.1092 8.80296 10.4615 9.20532 9.66657 9.3329V9.45067C10.7559 9.69601 11.541 10.1474 12.0219 10.8148C12.5126 11.4821 12.7579 12.3654 12.7579 13.4743C12.7579 15.0445 12.1887 16.2712 11.0601 17.1447C9.92173 18.0279 8.39078 18.4597 6.43784 18.4597H0V1.25616ZM3.65073 8.07674H5.7705C6.76169 8.07674 7.4781 7.91972 7.91972 7.61549C8.36134 7.31127 8.58706 6.80095 8.58706 6.09436C8.57724 5.43683 8.34171 4.96577 7.85102 4.68117C7.37015 4.38676 6.60467 4.24937 5.56441 4.24937H3.65073V8.07674ZM3.65073 10.962V15.4469H6.02566C7.02666 15.4469 7.77251 15.2506 8.25339 14.8679C8.73426 14.4851 8.96979 13.8963 8.96979 13.1014C8.96979 11.6784 7.94916 10.962 5.90789 10.962H3.65073Z" fill="#E84621"/>
<path d="M24.4068 18.4597L23.9259 16.7816H23.7395C23.3567 17.39 22.8072 17.8709 22.1006 18.1947C21.394 18.5284 20.5892 18.6952 19.6864 18.6952C18.1456 18.6952 16.9778 18.2831 16.1927 17.4587C15.4076 16.6344 15.015 15.4371 15.015 13.8865V5.30925H18.6069V12.9934C18.6069 13.9454 18.7737 14.652 19.1172 15.1328C19.4508 15.6039 19.9906 15.8493 20.7266 15.8493C21.7276 15.8493 22.4539 15.5156 22.9053 14.8384C23.3567 14.1711 23.5726 13.0523 23.5726 11.5017V5.30925H27.1645V18.4695H24.4068V18.4597ZM19.0681 3.85681V3.54277C20.4126 1.97257 21.3351 0.794916 21.8356 0H25.8592V0.245344C25.4471 0.657523 24.7503 1.25616 23.7689 2.06089C22.7875 2.86562 22.0122 3.46426 21.4529 3.85681H19.0681Z" fill="#E84621"/>
<path d="M39.2846 14.5538C39.2846 15.9081 38.8135 16.9287 37.8812 17.6353C36.9489 18.3419 35.5455 18.6952 33.6711 18.6952C32.7093 18.6952 31.8948 18.6265 31.2275 18.499C30.5503 18.3714 29.9222 18.1751 29.3334 17.9298V14.966C30.0007 15.28 30.7466 15.545 31.5906 15.7511C32.4247 15.967 33.1608 16.0651 33.7987 16.0651C35.1039 16.0651 35.7516 15.6922 35.7516 14.9366C35.7516 14.652 35.6633 14.4262 35.4965 14.2496C35.3198 14.0729 35.0254 13.8767 34.6034 13.6509C34.1814 13.4252 33.6122 13.1701 32.9056 12.8658C31.8948 12.4439 31.149 12.0513 30.6779 11.6882C30.2068 11.3251 29.8535 10.9129 29.6376 10.4517C29.4217 9.98059 29.3138 9.41139 29.3138 8.72443C29.3138 7.55659 29.7652 6.65372 30.6681 6.01583C31.5709 5.37793 32.8566 5.05408 34.5249 5.05408C36.1049 5.05408 37.6555 5.39756 39.1472 6.09434L38.0677 8.68517C37.4101 8.40058 36.7919 8.17486 36.2227 7.9884C35.6535 7.81175 35.0647 7.71361 34.466 7.71361C33.4061 7.71361 32.8762 7.99821 32.8762 8.57722C32.8762 8.90108 33.043 9.17586 33.3865 9.41139C33.73 9.64692 34.4758 10.0002 35.624 10.4615C36.6545 10.8736 37.4003 11.2662 37.8812 11.6293C38.3621 11.9924 38.7154 12.4046 38.9411 12.8757C39.1766 13.3467 39.2846 13.9061 39.2846 14.5538Z" fill="#E84621"/>
<path d="M44.7116 11.3054L46.272 9.30342L49.9521 5.2994H53.9954L48.7745 11.011L54.3193 18.4597H50.1779L46.3897 13.1308L44.849 14.3673V18.4597H41.2571V0.156982H44.849V8.32204L44.6625 11.3152H44.7116V11.3054Z" fill="#E84621"/>
<path d="M63.7503 18.4597L63.0535 16.6736H62.9554C62.3469 17.4391 61.7286 17.9592 61.0907 18.2536C60.4528 18.5481 59.6187 18.6953 58.5882 18.6953C57.3222 18.6953 56.3311 18.3322 55.6048 17.6157C54.8786 16.8895 54.5155 15.8689 54.5155 14.5342C54.5155 13.1407 55.0062 12.1102 55.9778 11.4429C56.9591 10.7755 58.4312 10.4124 60.394 10.3437L62.6806 10.275V9.69603C62.6806 8.36136 61.9936 7.69402 60.6295 7.69402C59.5794 7.69402 58.3429 8.00806 56.9199 8.64596L55.7422 6.22195C57.2535 5.42704 58.9317 5.03448 60.7767 5.03448C62.5432 5.03448 63.8975 5.41722 64.8396 6.19251C65.7817 6.95799 66.2528 8.12582 66.2528 9.69603V18.4597H63.7503ZM62.6904 12.3654L61.3066 12.4144C60.2664 12.4439 59.4911 12.6303 58.9808 12.9836C58.4705 13.3271 58.2153 13.8571 58.2153 14.5637C58.2153 15.5745 58.7943 16.0848 59.9523 16.0848C60.7865 16.0848 61.444 15.8493 61.9445 15.3684C62.445 14.8875 62.6904 14.2594 62.6904 13.4645V12.3654Z" fill="#E84621"/>
<path d="M72.7201 18.4597H69.1282V0.156982H72.7201V18.4597Z" fill="#E84621"/>
<path d="M81.7487 28.3716C80.7576 28.3716 79.9528 27.5669 79.9528 26.5757V20.4519C79.9528 20.1673 80.1785 19.9416 80.4631 19.9416H83.0245C83.3091 19.9416 83.5349 20.1673 83.5349 20.4519V26.5757C83.5447 27.5669 82.7399 28.3716 81.7487 28.3716Z" fill="#E84621"/>
<path d="M87.8039 8.25338C87.2445 7.22293 86.4398 6.42802 85.3995 5.88826C84.3592 5.33869 83.1521 5.0639 81.788 5.0639C79.5897 5.0639 77.892 5.66254 76.675 6.85001C75.4679 8.04729 74.8595 9.71563 74.8595 11.8649C74.8595 13.2486 75.1343 14.4557 75.6937 15.4861C76.2531 16.5264 77.0578 17.3115 78.098 17.8709C79.1383 18.4205 80.3454 18.7051 81.7095 18.7051C83.8882 18.7051 85.586 18.0966 86.8029 16.8895C88.0198 15.6824 88.6282 14.0043 88.6282 11.8649C88.638 10.4811 88.3633 9.27401 87.8039 8.25338ZM84.6831 14.7795C83.9765 15.4763 82.9853 15.8296 81.7291 15.8296C80.9342 15.8296 80.2374 15.6726 79.6388 15.3487C79.0304 15.0249 78.5691 14.5636 78.2453 13.965C77.9214 13.3664 77.7546 12.6598 77.7546 11.8649C77.7546 10.6185 78.1079 9.64694 78.8046 8.95997C79.5112 8.27301 80.4926 7.91971 81.7684 7.91971C82.5633 7.91971 83.2601 8.07673 83.8587 8.40059C84.4672 8.71463 84.9284 9.17588 85.2523 9.77452C85.5761 10.3732 85.743 11.0699 85.743 11.8747C85.743 13.1112 85.3897 14.0828 84.6831 14.7795Z" fill="#E84621"/>
<path d="M81.5329 12.2084H80.7085C80.5318 12.2084 80.3846 12.0612 80.3846 11.8845C80.3846 11.7079 80.5318 11.5607 80.7085 11.5607H81.5329V10.7265C81.5329 10.5499 81.6801 10.4026 81.8567 10.4026C82.0334 10.4026 82.1806 10.5499 82.1806 10.7265V11.5607H83.0049C83.1816 11.5607 83.3288 11.7079 83.3288 11.8845C83.3288 12.0612 83.1816 12.2084 83.0049 12.2084H82.1806V13.0229C82.1806 13.1996 82.0334 13.3468 81.8567 13.3468C81.6801 13.3468 81.5329 13.1996 81.5329 13.0229V12.2084Z" fill="#E84621"/>
</svg>