<svg width="21" height="26" viewBox="0 0 21 26" fill="none" xmlns="http://www.w3.org/2000/svg">
<path d="M10.3791 5.61517C7.72696 5.61517 5.56927 7.77286 5.56927 10.425C5.56927 13.0771 7.72696 15.2348 10.3791 15.2348C13.0312 15.2348 15.1889 13.0771 15.1889 10.425C15.1889 7.77286 13.0312 5.61517 10.3791 5.61517ZM10.3791 13.2096C8.84363 13.2096 7.59444 11.9604 7.59444 10.425C7.59444 8.88953 8.84363 7.64034 10.3791 7.64034C11.9145 7.64034 13.1637 8.88953 13.1637 10.425C13.1637 11.9604 11.9145 13.2096 10.3791 13.2096Z" fill="#E84621"/>
<path d="M10.3791 0.0458984C4.65603 0.0458984 0 4.70198 0 10.425V10.7119C0 13.6063 1.65942 16.9792 4.93231 20.7367C7.3049 23.4606 9.64435 25.36 9.74272 25.4395L10.3791 25.9538L11.0154 25.4396C11.1139 25.36 13.4533 23.4607 15.8259 20.7367C19.0987 16.9792 20.7582 13.6063 20.7582 10.7119V10.425C20.7582 4.70198 16.1021 0.0458984 10.3791 0.0458984ZM18.733 10.7119C18.733 15.6033 12.4306 21.5244 10.3791 23.3219C8.32705 21.5239 2.02516 15.603 2.02516 10.7119V10.425C2.02516 5.8187 5.77275 2.07111 10.3791 2.07111C14.9854 2.07111 18.733 5.8187 18.733 10.425V10.7119Z" fill="#E84621"/>
</svg>