<svg width="129" height="129" viewBox="0 0 129 129" fill="none" xmlns="http://www.w3.org/2000/svg">
<path d="M97.0314 129H31.856C14.2958 129 0 114.704 0 97.0314V31.856C0 14.2958 14.2958 0 31.856 0H97.0314C114.704 0 128.887 14.2958 128.887 31.856V97.0314C129 114.704 114.704 129 97.0314 129Z" fill="url(#paint0_linear)"/>
<path d="M102.898 69.3401C103.798 63.0365 103.01 57.0705 100.309 51.2171C97.6073 45.4763 93.3298 40.2983 87.3639 35.7956C77.9084 28.5915 68.5654 25.5522 59.4476 26.7904C50.3298 27.9161 42.2251 33.2066 35.1335 42.437C30.6309 48.403 27.8167 54.5941 26.9162 60.8977C25.9031 67.2014 26.8036 73.2799 29.5052 79.0208C32.2068 84.8742 36.4843 89.9396 42.3377 94.4423C51.7932 101.534 61.0235 104.573 70.2539 103.335C79.4843 102.097 87.589 96.9187 94.6806 87.5758C99.1832 81.7224 101.885 75.6438 102.898 69.3401ZM68.0026 87.3506C62.5995 88.026 57.1963 86.3375 51.7932 82.1726C48.4162 79.5836 45.9398 76.5443 44.3639 73.2799C42.7879 69.903 42.3377 66.4135 42.9005 62.6988C43.4633 58.9841 45.0392 55.4946 47.7408 52.0051C51.7932 46.6019 56.5209 43.5627 61.8115 42.8873C67.1021 42.2119 72.5052 43.9004 78.0209 48.0653C81.3979 50.6543 83.9869 53.581 85.4502 56.9579C87.0262 60.3349 87.4764 63.8244 87.0262 67.4265C86.4633 71.0286 84.8874 74.6307 82.2984 78.1203C78.0209 83.636 73.2932 86.6752 68.0026 87.3506Z" fill="url(#paint1_linear)"/>
<path d="M62.712 65.9631L59.1099 63.2615C58.322 62.6987 58.2094 61.5731 58.7722 60.7851C59.3351 59.9971 60.4607 59.8846 61.2487 60.4474L64.8508 63.149L67.5523 59.5469C68.1152 58.7589 69.2408 58.6464 70.0288 59.2092C70.8167 59.772 70.9293 60.8977 70.3665 61.6856L67.6649 65.2877L71.267 67.9893C72.055 68.5521 72.1675 69.6778 71.6047 70.4657C71.0419 71.2537 69.9162 71.3663 69.1283 70.8034L65.5262 68.1019L62.8246 71.5914C62.2618 72.3793 61.1361 72.4919 60.3482 71.9291C59.5602 71.3663 59.4476 70.2406 60.0105 69.4526L62.712 65.9631Z" fill="url(#paint2_linear)"/>
<path d="M101.997 68.6649C102.898 62.3612 102.11 56.3952 99.4084 50.5418C96.7068 44.801 92.4293 39.623 86.4633 35.1203C77.0078 27.9162 67.6649 24.8769 58.5471 26.1151C49.4293 27.2408 41.3246 32.5313 34.233 41.7617C29.7304 47.7277 26.9162 53.9188 26.0157 60.2224C25.0026 66.5261 25.9031 72.6046 28.6047 78.3455C31.3063 84.1989 35.5838 89.2643 41.4372 93.7669C50.8927 100.859 60.123 103.898 69.3534 102.66C78.5838 101.421 86.6885 96.2434 93.7801 86.9005C98.2827 81.047 100.984 74.9685 101.997 68.6649ZM67.1021 86.6753C61.6989 87.3507 56.2958 85.6622 50.8927 81.4973C47.5157 78.9083 45.0393 75.869 43.4633 72.6046C41.8874 69.2277 41.4372 65.7381 42 62.0235C42.5628 58.3088 44.1387 54.8193 46.8403 51.3298C50.8927 45.9266 55.6204 42.8874 60.911 42.212C66.2016 41.5366 71.6047 43.2251 77.1204 47.39C80.4974 49.979 83.0864 52.9057 84.5497 56.2827C86.1256 59.6596 86.5759 63.1491 86.1256 66.7512C85.5628 70.3533 83.9869 73.9554 81.3979 77.445C77.233 82.9607 72.5052 85.9999 67.1021 86.6753Z" fill="url(#paint3_linear)"/>
<path d="M61.9241 65.2878L58.322 62.5863C57.534 62.0234 57.4214 60.8978 57.9843 60.1098C58.5471 59.3219 59.6728 59.2093 60.4607 59.7721L64.0628 62.4737L66.7644 58.8716C67.3272 58.0836 68.4529 57.9711 69.2408 58.5339C70.0288 59.0967 70.1413 60.2224 69.5785 61.0103L66.8769 64.6124L70.479 67.314C71.267 67.8768 71.3796 69.0025 70.8167 69.7904C70.2539 70.5784 69.1283 70.691 68.3403 70.1281L64.7382 67.4266L62.0366 70.9161C61.4738 71.7041 60.3481 71.8166 59.5602 71.2538C58.7722 70.691 58.6597 69.5653 59.2225 68.7774L61.9241 65.2878Z" fill="url(#paint4_linear)"/>
<path d="M44.7016 104.798L32.0942 95.2304C31.3063 94.6676 30.1806 94.7802 29.6178 95.5681L10.144 121.233C15.2094 125.623 21.6257 128.437 28.7173 128.887L45.0393 107.387C45.6021 106.6 45.4895 105.474 44.7016 104.798Z" fill="url(#paint5_linear)"/>
<defs>
<linearGradient id="paint0_linear" x1="71" y1="44.5" x2="-79" y2="-85.5" gradientUnits="userSpaceOnUse">
<stop stop-color="#E84621"/>
<stop offset="1" stop-color="#E84621" stop-opacity="0"/>
</linearGradient>
<linearGradient id="paint1_linear" x1="66.8807" y1="24.7339" x2="61.1459" y2="138.199" gradientUnits="userSpaceOnUse">
<stop stop-color="#FF9261"/>
<stop offset="0.314" stop-color="#FF773E"/>
<stop offset="0.5944" stop-color="#FF5D17"/>
<stop offset="0.7934" stop-color="#FF4D00"/>
</linearGradient>
<linearGradient id="paint2_linear" x1="67.3036" y1="24.7553" x2="61.5689" y2="138.221" gradientUnits="userSpaceOnUse">
<stop stop-color="#FF9261"/>
<stop offset="0.314" stop-color="#FF773E"/>
<stop offset="0.5944" stop-color="#FF5D17"/>
<stop offset="0.7934" stop-color="#FF4D00"/>
</linearGradient>
<linearGradient id="paint3_linear" x1="66.0281" y1="24.0602" x2="60.2933" y2="137.526" gradientUnits="userSpaceOnUse">
<stop stop-color="#FAF9F1"/>
<stop offset="1" stop-color="#F5F2E4"/>
</linearGradient>
<linearGradient id="paint4_linear" x1="66.4511" y1="24.0815" x2="60.7164" y2="137.547" gradientUnits="userSpaceOnUse">
<stop stop-color="#FAF9F1"/>
<stop offset="1" stop-color="#F5F2E4"/>
</linearGradient>
<linearGradient id="paint5_linear" x1="21.1095" y1="106.821" x2="30.0964" y2="115.688" gradientUnits="userSpaceOnUse">
<stop stop-color="#FAF9F1"/>
<stop offset="1" stop-color="#F5F2E4"/>
</linearGradient>
</defs>
</svg>