<svg width="19" height="28" viewBox="0 0 19 28" fill="none" xmlns="http://www.w3.org/2000/svg">
<path d="M16.2551 7.8062H14.9541V1.95155C14.9541 0.875099 14.079 0 13.0026 0C11.9339 0.00774424 11.0588 0.875099 11.0588 1.95155V7.79845H7.15567V1.95155C7.15567 0.875099 6.28057 0 5.20413 0C4.12768 0 3.25258 0.875099 3.25258 1.95155V7.79845H1.95155C0.875098 7.79845 0 8.67355 0 9.75C0 10.6019 0.542097 11.3221 1.30103 11.5854V17.5485C1.30103 20.4293 2.72597 22.4196 5.20413 22.7139V26.6479V27.2985H6.50516H11.7015H13.0026V26.6479V22.7061C15.4575 22.4041 16.9057 20.3674 16.9057 17.5485V11.5854C17.6646 11.3143 18.2067 10.5941 18.2067 9.75C18.2067 8.68129 17.3316 7.8062 16.2551 7.8062ZM12.3598 1.95155C12.3598 1.59531 12.6541 1.30103 13.0103 1.30103C13.3666 1.30103 13.6608 1.59531 13.6608 1.95155V7.79845H12.3598V1.95155ZM4.55361 1.95155C4.55361 1.59531 4.84789 1.30103 5.20413 1.30103C5.56036 1.30103 5.85464 1.59531 5.85464 1.95155V7.79845H4.55361V1.95155ZM15.6046 17.5562C15.6046 19.9569 14.412 21.4593 12.3521 21.4593C11.9958 21.4593 11.7015 21.7536 11.7015 22.1098V26.0129H6.50516V22.1098C6.50516 21.7536 6.21088 21.4593 5.85464 21.4593C3.7637 21.4593 2.60206 20.0266 2.60206 17.5562V11.7015H15.6046V17.5562ZM16.2551 10.4005H1.95929C1.60306 10.4005 1.30878 10.1062 1.30878 9.75C1.30878 9.39377 1.60306 9.09948 1.95929 9.09948H3.91084H6.5129H11.7093H14.3113H16.2629C16.6191 9.09948 16.9134 9.39377 16.9134 9.75C16.9057 10.114 16.6191 10.4005 16.2551 10.4005Z" fill="#8D8D8D"/>
</svg>