<svg width="24" height="23" viewBox="0 0 24 23" fill="none" xmlns="http://www.w3.org/2000/svg">
<path d="M23.7787 11.7022L23.7591 11.712L20.4475 3.46976H21.9586C22.2295 3.46976 22.4492 3.25009 22.4492 2.97915C22.4492 2.70822 22.2295 2.48855 21.9586 2.48855H12.7253V1.07069C12.7253 0.799748 12.5057 0.580078 12.2347 0.580078C11.9638 0.580078 11.7441 0.799748 11.7441 1.07069V2.48364H2.51577C2.24483 2.48364 2.02516 2.70331 2.02516 2.97425C2.02516 3.24519 2.24483 3.46486 2.51577 3.46486H4.09063L0.774112 11.7022C0.749582 11.7596 0.736274 11.8213 0.734863 11.8837C0.734863 14.1367 2.56128 15.9631 4.81427 15.9631C7.06727 15.9631 8.89368 14.1367 8.89368 11.8837C8.89227 11.8213 8.87896 11.7596 8.85443 11.7022L5.54283 3.45995H11.7441V18.6296C9.40392 18.8062 7.57395 20.2289 7.57395 21.951C7.57395 22.2219 7.79362 22.4416 8.06455 22.4416H16.4049C16.6758 22.4416 16.8955 22.2219 16.8955 21.951C16.8955 20.2289 15.0655 18.8062 12.7253 18.6296V3.45995H18.9904L15.6984 11.7022C15.6739 11.7596 15.6606 11.8213 15.6592 11.8837C15.6592 14.1367 17.4856 15.9631 19.7386 15.9631C21.9916 15.9631 23.818 14.1367 23.818 11.8837C23.8166 11.8213 23.8033 11.7596 23.7787 11.7022ZM4.81182 14.9892C3.29228 14.9872 1.99818 13.8842 1.75533 12.3841H7.84869C7.60706 13.8769 6.32394 14.9776 4.81182 14.9892ZM7.67207 11.4029H1.96138L4.82163 4.28417L7.67207 11.4029ZM15.826 21.4604H8.63857C9.00162 20.4056 10.498 19.5912 12.2298 19.5912C13.9617 19.5912 15.4629 20.4056 15.826 21.4604ZM19.7165 4.28908L22.5669 11.4029H16.8563L19.7165 4.28908ZM19.7165 14.9892V14.9942C18.2028 14.9821 16.9191 13.8788 16.6796 12.3841H22.773C22.5301 13.8842 21.236 14.9872 19.7165 14.9892Z" fill="#8D8D8D"/>
</svg>