<svg width="21" height="24" viewBox="0 0 21 24" fill="none" xmlns="http://www.w3.org/2000/svg">
<path d="M13.0113 1.4696H10.3426V3.13755H12.1773V6.27884C12.1773 9.03791 9.93254 11.2827 7.17347 11.2827C4.4144 11.2827 2.16965 9.03796 2.16965 6.27888V3.13755H3.94881V1.4696H1.33568C0.875045 1.4696 0.501709 1.84294 0.501709 2.30357V6.27888C0.501709 9.95784 3.49456 12.9507 7.17351 12.9507C10.8525 12.9507 13.8453 9.95784 13.8453 6.27888V2.30357C13.8453 1.84294 13.472 1.4696 13.0113 1.4696Z" fill="#8D8D8D"/>
<path d="M16.2638 13.6457V17.5932C16.2638 19.8925 14.3932 21.7631 12.0939 21.7631C9.79465 21.7631 7.92404 19.8925 7.92404 17.5932V12.1445H6.2561V17.5932C6.2561 20.812 8.87477 23.431 12.0939 23.431C15.3128 23.431 17.9318 20.812 17.9318 17.5932V13.6457H16.2638Z" fill="#8D8D8D"/>
<path d="M17.0981 8.25269C15.3963 8.25269 14.0121 9.63682 14.0121 11.3384C14.0121 13.0397 15.3963 14.4241 17.0979 14.4241C18.7994 14.4241 20.1836 13.0397 20.1839 11.3384C20.1838 9.63682 18.7994 8.25269 17.0981 8.25269ZM17.0979 12.7562C16.3159 12.7562 15.6798 12.1202 15.6798 11.3384C15.6798 10.5567 16.3158 9.92071 17.0979 9.92071C17.8796 9.92071 18.5156 10.5567 18.5156 11.3384C18.5156 12.1202 17.8796 12.7562 17.0979 12.7562Z" fill="#8D8D8D"/>
<path d="M3.92104 0.580078C3.4604 0.580078 3.08707 0.953414 3.08707 1.41405V3.19321C3.08707 3.65384 3.4604 4.02718 3.92104 4.02718C4.38167 4.02718 4.75501 3.65384 4.75501 3.19321V1.41405C4.75501 0.953414 4.38167 0.580078 3.92104 0.580078Z" fill="#8D8D8D"/>
<path d="M10.3704 0.580078C9.9098 0.580078 9.53647 0.953414 9.53647 1.41405V3.19321C9.53647 3.65384 9.9098 4.02718 10.3704 4.02718C10.8311 4.02718 11.2044 3.65384 11.2044 3.19321V1.41405C11.2044 0.953414 10.8311 0.580078 10.3704 0.580078Z" fill="#8D8D8D"/>
</svg>