<svg width="23" height="22" viewBox="0 0 23 22" fill="none" xmlns="http://www.w3.org/2000/svg">
<path d="M22.3992 9.36301L20.5262 7.6563V1.99701C20.5262 1.63693 20.2342 1.34496 19.8741 1.34496H15.3654C15.0053 1.34496 14.7133 1.63688 14.7133 1.99701V2.35965L12.4512 0.29844C12.0146 -0.0994943 11.3561 -0.099451 10.9196 0.298396L0.971577 9.36305C0.621842 9.68178 0.50626 10.1729 0.677143 10.6141C0.84807 11.0553 1.26424 11.3404 1.73743 11.3404H3.32627V20.4225C3.32627 20.7826 3.61819 21.0745 3.97832 21.0745H9.43104C9.79112 21.0745 10.0831 20.7826 10.0831 20.4225V14.9081H13.2877V20.4225C13.2877 20.7826 13.5797 21.0746 13.9398 21.0746H19.3923C19.7524 21.0746 20.0443 20.7827 20.0443 20.4225V11.3405H21.6335C22.1066 11.3405 22.5228 11.0553 22.6938 10.6141C22.8646 10.1729 22.7491 9.68178 22.3992 9.36301ZM19.3923 10.0364C19.0322 10.0364 18.7402 10.3283 18.7402 10.6884V19.7705H14.5919V14.2561C14.5919 13.896 14.2999 13.604 13.9398 13.604H9.43104C9.07095 13.604 8.77899 13.896 8.77899 14.2561V19.7705H4.63033V10.6884C4.63033 10.3283 4.3384 10.0364 3.97828 10.0364H2.16884L11.6855 1.36488L14.9263 4.31792C15.1172 4.49184 15.3927 4.53666 15.6289 4.43242C15.8651 4.32806 16.0175 4.09412 16.0175 3.83593V2.64906H19.2221V7.94428C19.2221 8.12776 19.2994 8.30268 19.435 8.42627L21.202 10.0364H19.3923Z" fill="#8D8D8D"/>
</svg>