<svg width="23" height="16" viewBox="0 0 23 16" fill="none" xmlns="http://www.w3.org/2000/svg">
<path d="M22.7138 9.13358L21.1612 7.13395C21.0121 6.94135 20.7819 6.82873 20.5379 6.82873H14.8022V1.30346C14.8022 0.867472 14.4488 0.51416 14.0129 0.51416H0.857418C0.421428 0.51416 0.0681152 0.867521 0.0681152 1.30346C0.0681152 1.7394 0.421477 2.09277 0.857418 2.09277H13.2235V7.61803C13.2235 8.05402 13.5769 8.40733 14.0128 8.40733H20.1514L21.3009 9.8881V13.9589H19.1171C18.6811 13.9589 18.3278 14.3123 18.3278 14.7482C18.3278 15.1842 18.6812 15.5375 19.1171 15.5375H22.0902C22.5262 15.5375 22.8795 15.1842 22.8796 14.7482V9.61771C22.8796 9.44247 22.8212 9.27198 22.7138 9.13358Z" fill="#8D8D8D"/>
</svg>