<svg width="25" height="19" viewBox="0 0 25 19" fill="none" xmlns="http://www.w3.org/2000/svg">
<path d="M24.481 2.06091C24.4794 2.06091 24.4777 2.06091 24.4762 2.06091H22.859V1.50753C22.8677 1.2885 22.726 1.09166 22.5155 1.03048C21.3928 0.736259 20.2366 0.588731 19.076 0.591594C17.1678 0.591594 14.5679 1.02094 12.6453 2.97685C10.7371 1.00186 8.11814 0.591594 6.21471 0.591594C5.05404 0.588731 3.89791 0.736259 2.77517 1.03048C2.56467 1.09166 2.42299 1.2885 2.4317 1.50753V2.05614H0.824035C0.560584 2.05614 0.346985 2.26974 0.346985 2.53319V17.7702C0.346985 18.0336 0.560584 18.2472 0.824035 18.2472C0.905969 18.247 0.986471 18.2256 1.05779 18.1852C1.1055 18.1614 5.876 15.5519 12.5356 17.2311H12.6072H12.6501C12.6882 17.2357 12.7266 17.2357 12.7646 17.2311C19.4433 15.5376 24.2138 18.1423 24.2424 18.1852C24.39 18.2704 24.5719 18.2704 24.7195 18.1852C24.8662 18.1005 24.957 17.9444 24.958 17.7749V2.53796C24.958 2.27451 24.7445 2.06091 24.481 2.06091ZM1.30109 17.0117V3.01501H2.44124V14.9794C2.43825 15.2429 2.64941 15.4589 2.91286 15.4618C2.93862 15.4621 2.96438 15.4604 2.98984 15.4565C3.97674 15.3058 4.97312 15.2261 5.97141 15.218C7.35426 15.194 8.73133 15.402 10.0454 15.8334C7.07787 15.4745 4.0678 15.8801 1.30109 17.0117ZM5.97141 14.2686C5.10371 14.2706 4.23703 14.3263 3.37626 14.4356V1.8844C4.30507 1.67748 5.25357 1.57187 6.20516 1.56955C7.98933 1.56955 10.4509 1.97981 12.1588 3.90709L12.1731 15.7904C11.1808 15.1416 9.24398 14.2686 5.97141 14.2686ZM13.1272 3.90709C14.835 1.99889 17.2966 1.56955 19.0808 1.56955C20.0323 1.57235 20.9808 1.6779 21.9097 1.8844V14.4356C21.0537 14.3253 20.1918 14.268 19.3288 14.2639C16.0753 14.2639 14.1337 15.1369 13.1272 15.7856V3.90709ZM23.9991 17.0117C21.2265 15.877 18.2095 15.4713 15.2357 15.8334C16.556 15.4004 17.9397 15.1924 19.3288 15.218C20.3334 15.2236 21.3362 15.3017 22.3295 15.4517C22.5899 15.4912 22.8332 15.3121 22.8727 15.0516C22.8766 15.0262 22.8784 15.0004 22.8781 14.9747V3.01501H24.0182L23.9991 17.0117Z" fill="#8D8D8D"/>
</svg>