<svg width="25" height="22" viewBox="0 0 25 22" fill="none" xmlns="http://www.w3.org/2000/svg">
<path d="M2.45664 8.32494L4.22101 2.44376C4.50397 1.50055 5.35575 0.866943 6.33996 0.866943H18.8911C19.8753 0.866943 20.7271 1.50055 21.01 2.44376L22.7744 8.32494C23.7147 8.57963 24.412 9.43175 24.412 10.4516V17.0872C24.412 17.9 23.7504 18.5617 22.9375 18.5617V19.299C22.9375 20.5187 21.9453 21.5108 20.7257 21.5108H19.2511C18.0314 21.5108 17.0393 20.5187 17.0393 19.299V18.5617H8.19188V19.299C8.19188 20.5187 7.19972 21.5108 5.98003 21.5108H4.50548C3.28579 21.5108 2.29364 20.5187 2.29364 19.299V18.5617C1.48076 18.5617 0.819088 17.9 0.819088 17.0872V10.4516C0.819002 9.43175 1.51632 8.57963 2.45664 8.32494ZM19.5974 2.86714C19.5031 2.55249 19.2194 2.34154 18.8911 2.34154H6.34005C6.01172 2.34154 5.72807 2.55249 5.63375 2.86714L4.02192 8.23978H21.2093L19.5974 2.86714ZM18.5139 19.2991C18.5139 19.7059 18.8443 20.0364 19.2511 20.0364H20.7257C21.1325 20.0364 21.463 19.7059 21.463 19.2991V18.5618H18.5139V19.2991ZM3.76818 19.2991C3.76818 19.7059 4.09867 20.0364 4.50548 20.0364H5.98003C6.38684 20.0364 6.71733 19.7059 6.71733 19.2991V18.5618H3.76818V19.2991ZM22.9375 17.0872V10.4517C22.9375 10.0449 22.6071 9.71441 22.2002 9.71441H3.03089C2.62408 9.71441 2.29359 10.0449 2.29359 10.4517V17.0872H22.9375Z" fill="#8D8D8D"/>
<path d="M19.1647 11.5342C20.3844 11.5342 21.3766 12.5263 21.3766 13.746C21.3766 14.9657 20.3844 15.9579 19.1647 15.9579C17.9451 15.9579 16.9529 14.9657 16.9529 13.746C16.9529 12.5263 17.9451 11.5342 19.1647 11.5342ZM19.1647 14.4833C19.5715 14.4833 19.902 14.1528 19.902 13.746C19.902 13.3392 19.5715 13.0087 19.1647 13.0087C18.7579 13.0087 18.4274 13.3392 18.4274 13.746C18.4274 14.1528 18.7579 14.4833 19.1647 14.4833Z" fill="#8D8D8D"/>
<path d="M5.50519 11.5342C6.72488 11.5342 7.71704 12.5263 7.71704 13.746C7.71704 14.9657 6.72488 15.9579 5.50519 15.9579C4.28551 15.9579 3.29335 14.9657 3.29335 13.746C3.29335 12.5263 4.28551 11.5342 5.50519 11.5342ZM5.50519 14.4833C5.912 14.4833 6.24249 14.1528 6.24249 13.746C6.24249 13.3392 5.912 13.0087 5.50519 13.0087C5.09839 13.0087 4.7679 13.3392 4.7679 13.746C4.7679 14.1528 5.09839 14.4833 5.50519 14.4833Z" fill="#8D8D8D"/>
</svg>