<svg width="20" height="23" viewBox="0 0 20 23" fill="none" xmlns="http://www.w3.org/2000/svg">
<path d="M19.4929 3.01266L17.5298 1.04945C17.3378 0.85754 17.0277 0.85754 16.8358 1.04945L7.01984 10.8654C6.82794 11.0573 6.82794 11.3675 7.01984 11.5594C7.21175 11.7513 7.52193 11.7513 7.71384 11.5594L17.1828 2.09048L18.3435 3.25122L17.3653 3.80729C17.1931 3.90497 17.0969 4.09684 17.1204 4.29368L17.2961 5.72532L16.0421 6.43842C15.8699 6.53611 15.7732 6.72798 15.7972 6.92482L15.9729 8.35646L14.7189 9.0696C14.5467 9.16729 14.4505 9.35915 14.474 9.556L14.6497 10.9876L13.3957 11.7008C13.2235 11.7985 13.1268 11.9903 13.1508 12.1872L13.3265 13.6188L12.0725 14.332C11.9003 14.4296 11.8041 14.6215 11.8276 14.8184L12.0033 16.25L10.7493 16.9631C10.5687 17.0657 10.472 17.2714 10.5088 17.476L10.7631 18.8998L10.3116 19.3528L10.024 19.0652L10.1677 18.9214C10.2595 18.8296 10.3115 18.7045 10.3115 18.5744V16.6112C10.3115 16.4812 10.26 16.356 10.1677 16.2643L6.24137 12.3379C6.04946 12.146 5.73928 12.146 5.54737 12.3379L1.13026 16.755C0.938351 16.9469 0.938351 17.257 1.13026 17.4489C1.22596 17.5446 1.35161 17.5927 1.47726 17.5927C1.6029 17.5927 1.72855 17.5446 1.82425 17.4489L1.96804 17.3052L6.18202 21.5191L6.03824 21.6629C5.84633 21.8548 5.84633 22.165 6.03824 22.3569C6.13394 22.4526 6.25959 22.5007 6.38524 22.5007C6.51089 22.5007 6.63653 22.4526 6.73223 22.3569L8.20462 20.8845C8.39653 20.6926 8.39653 20.3825 8.20462 20.1905C8.01271 19.9986 7.70253 19.9986 7.51063 20.1905L6.87602 20.8252L2.66203 16.6112L5.89441 13.3788L9.33001 16.8144V18.3712L8.98301 18.7182C8.7911 18.9101 8.7911 19.2203 8.98301 19.4122L9.96462 20.3938C10.1565 20.5857 10.4667 20.5857 10.6586 20.3938L11.6402 19.4122C11.7536 19.2988 11.8046 19.1369 11.7762 18.9788L11.5381 17.6444L12.7749 16.941C12.9472 16.8434 13.0434 16.6515 13.0199 16.4546L12.8441 15.023L14.0981 14.3099C14.2704 14.2122 14.3666 14.0203 14.3431 13.8235L14.1673 12.3918L15.4213 11.6787C15.5936 11.581 15.6898 11.3891 15.6663 11.1923L15.4905 9.76065L16.7445 9.0475C16.9168 8.94982 17.013 8.75795 16.9895 8.56111L16.8137 7.12947L18.0677 6.41632C18.24 6.31864 18.3362 6.12677 18.3127 5.92993L18.1369 4.49829L19.3909 3.78515C19.524 3.70956 19.6143 3.57607 19.6349 3.4244C19.6529 3.27374 19.6014 3.1211 19.4929 3.01266Z" fill="#8D8D8D"/>
</svg>