<svg width="28" height="28" viewBox="0 0 28 28" fill="none" xmlns="http://www.w3.org/2000/svg">
<path d="M26.013 19.4517C24.6893 18.1309 22.6865 17.7241 20.9509 18.399L20.1911 17.6409C20.2514 17.5955 20.3095 17.5457 20.3644 17.4909L22.2602 15.5992C22.571 15.2892 22.7421 14.8757 22.7421 14.4348C22.7421 13.994 22.571 13.5805 22.2602 13.2705H22.2602C21.9157 12.9267 21.4555 12.7673 21.0036 12.7919C21.0149 12.7091 21.021 12.6251 21.021 12.5401C21.021 12.0513 20.831 11.593 20.4861 11.2496C20.1515 10.9158 19.7185 10.7388 19.2794 10.7185C19.4888 10.083 19.3416 9.35223 18.84 8.85042C18.4299 8.44123 17.8719 8.26808 17.3361 8.33C17.3439 8.2608 17.3484 8.19081 17.3484 8.12008C17.3484 7.6313 17.1588 7.17301 16.8147 6.82959C16.1022 6.11871 14.943 6.11876 14.2305 6.82959L13.0188 8.03864L12.925 7.94507C12.4715 7.49253 11.7328 7.49316 11.2783 7.9466L10.8762 8.34783L9.70428 7.17749C10.3805 5.44506 9.97248 3.44681 8.64855 2.12583C7.54631 1.02602 5.96747 0.543093 4.42598 0.834134C4.20535 0.875643 3.53408 1.00197 3.39631 1.51559C3.2616 2.01792 3.74062 2.42969 3.9709 2.62759C3.99422 2.64763 5.86288 4.50865 5.86288 4.50865C6.34807 4.99278 6.38067 5.77202 5.94179 6.2944C5.41762 6.73286 4.63548 6.70047 4.1496 6.21565C4.1496 6.21565 2.28447 4.3511 2.26432 4.32779C2.06595 4.09809 1.65297 3.62033 1.15063 3.7552C0.637117 3.89328 0.510532 4.56271 0.468969 4.78249C0.177242 6.32177 0.661327 7.89755 1.76399 8.99774C3.08776 10.3185 5.0905 10.7253 6.82609 10.0504L8.18288 11.4041C8.01726 11.832 7.94005 12.3029 7.96837 12.7758C8.03272 13.8372 7.4701 14.8782 6.08699 16.2568L4.64629 17.6943C4.15867 17.4442 3.54431 17.5222 3.13628 17.9293L1.11851 19.9426C0.87399 20.1865 0.739388 20.5118 0.739388 20.8585C0.739388 21.2052 0.874043 21.5304 1.11846 21.7743L6.69049 27.3339C6.94318 27.586 7.27516 27.7121 7.60713 27.7121C7.9391 27.7121 8.27107 27.586 8.52382 27.3339L10.5416 25.3206C10.7861 25.0766 10.9207 24.7514 10.9207 24.4047C10.9207 24.1951 10.8712 23.9934 10.7783 23.8127L13.229 21.3674C13.9554 20.6426 14.0735 20.6623 14.8429 20.7907C14.9724 20.8123 15.1192 20.8369 15.2843 20.8604C15.956 20.9568 16.7358 20.6156 17.1784 20.3792L18.0727 21.2718C17.8366 21.8776 17.727 22.5365 17.7547 23.1939C17.7636 23.4065 17.9388 23.5729 18.1496 23.5729C18.1552 23.5729 18.1609 23.5728 18.1665 23.5725C18.3848 23.5633 18.5543 23.379 18.5451 23.1607C18.5188 22.534 18.6416 21.9066 18.9003 21.3464C18.9698 21.1957 18.938 21.0177 18.8205 20.9005L12.4906 14.5832C12.748 14.0981 12.8938 13.5822 12.9098 13.0756C13.3654 13.4673 13.9647 13.7864 14.5506 13.9439C15.0303 14.0729 15.4792 14.0939 15.8823 14.0104C15.8823 14.0149 15.882 14.0193 15.882 14.0238C15.8823 14.5119 16.0724 14.9697 16.4165 15.3121C16.7402 15.6359 17.1656 15.8227 17.6225 15.8436C17.5755 15.998 17.5511 16.1604 17.5511 16.3266C17.5511 16.7674 17.7222 17.1809 18.0329 17.4909C18.3543 17.8116 18.7764 17.9719 19.1986 17.9719C19.2629 17.9719 19.3271 17.9677 19.3911 17.9602L20.5804 19.1468C20.6974 19.2636 20.8746 19.2953 21.0247 19.2264C22.5173 18.542 24.2975 18.8575 25.4542 20.0116C26.3712 20.9266 26.7736 22.2379 26.5307 23.5196C26.49 23.7343 26.4439 23.8468 26.4142 23.9018C26.3573 23.8645 26.264 23.781 26.1116 23.6044C26.0773 23.5647 24.1862 21.6736 24.1862 21.6736C23.4014 20.8903 22.1314 20.8473 21.2952 21.5758C21.2817 21.5876 21.2691 21.6001 21.2573 21.6136C20.5266 22.4486 20.5697 23.7168 21.3554 24.5007L23.5872 26.7219C23.5316 26.7516 23.4188 26.7974 23.2045 26.8377C21.9194 27.0801 20.6045 26.6787 19.6878 25.764C19.397 25.4726 19.1555 25.1412 18.9698 24.7789C18.8701 24.5845 18.6318 24.5077 18.4373 24.6074C18.2429 24.707 18.1661 24.9454 18.2658 25.1399C18.4889 25.5752 18.7789 25.9732 19.1284 26.3234C20.0194 27.2124 21.2215 27.6984 22.4638 27.6983C22.7585 27.6983 23.0555 27.6709 23.351 27.6152C23.5716 27.5737 24.2429 27.4474 24.3807 26.9337C24.5154 26.4315 24.0363 26.0196 23.8061 25.8217C23.7827 25.8017 21.9141 23.9407 21.9141 23.9407C21.4289 23.4565 21.3963 22.6773 21.8352 22.1549C22.3593 21.7165 23.1415 21.7489 23.6274 22.2337C23.6274 22.2337 25.4925 24.0982 25.5126 24.1215C25.7111 24.3513 26.1243 24.8292 26.6263 24.6941C27.1397 24.556 27.2663 23.8866 27.3079 23.6668C27.5998 22.1277 27.1156 20.5519 26.013 19.4517ZM18.2808 9.41025C18.677 9.80651 18.6832 10.4551 18.2953 10.8574L17.0237 12.1261C16.8054 11.8098 15.6042 10.6185 15.6042 10.6185L16.8147 9.41061C17.2191 9.00712 17.877 9.00723 18.2808 9.41025ZM14.7894 7.38978C15.1937 6.98635 15.8517 6.98645 16.2559 7.38978C16.4503 7.58372 16.5573 7.84312 16.5573 8.12018C16.5573 8.39725 16.4503 8.65664 16.2559 8.85058L15.0441 10.0596L13.5788 8.59762L14.7894 7.38978ZM7.19657 9.30249C7.07969 9.18582 6.90257 9.15412 6.7523 9.22295C5.25954 9.90725 3.47949 9.59179 2.32287 8.4377C1.40581 7.52275 1.00337 6.21143 1.24636 4.9297C1.28703 4.71498 1.33313 4.60253 1.36282 4.54757C1.41968 4.58486 1.51298 4.6683 1.66547 4.84494C1.6997 4.8846 3.59078 6.77574 3.59078 6.77574C4.37577 7.55904 5.64563 7.60203 6.48183 6.87353C6.49528 6.86182 6.50789 6.84916 6.5197 6.83576C7.25042 6.00072 7.20733 4.73254 6.42165 3.94861C6.42165 3.94861 4.2275 1.78426 4.18979 1.72746C4.24538 1.69771 4.35826 1.65193 4.5725 1.61158C5.8575 1.36906 7.17251 1.77066 8.08984 2.68597C9.24604 3.83959 9.56224 5.61479 8.87667 7.10338C8.80737 7.25392 8.83922 7.43166 8.95647 7.54875L10.3163 8.90675L8.84223 10.3775C8.74755 10.472 8.66053 10.5745 8.57988 10.6826L7.19657 9.30249ZM16.4169 12.7316C16.3145 12.8338 16.2261 12.9463 16.1519 13.0665C15.3092 13.5886 13.9769 13.0134 13.3138 12.3748L13.2316 12.2929C12.6255 11.6888 12.3031 11.3673 12.2734 11.3368C12.2729 11.3362 12.2723 11.3358 12.2718 11.3353C12.2703 11.3338 12.269 11.3322 12.2675 11.3308C12.2654 11.3286 12.2633 11.3271 12.2611 11.3252C12.1099 11.1804 11.8702 11.1779 11.7162 11.3233C11.5575 11.4734 11.5505 11.7238 11.7006 11.8826C11.7021 11.884 11.7044 11.8865 11.7086 11.8907C11.9786 12.1602 12.1213 12.5375 12.1213 12.9821C12.1213 13.6813 11.764 14.4554 11.1654 15.0526C11.0107 15.2069 11.0105 15.4573 11.1648 15.612C11.2421 15.6894 11.3435 15.7282 11.4448 15.7282C11.5459 15.7282 11.647 15.6897 11.7243 15.6126C11.8389 15.4983 11.9451 15.3786 12.0445 15.2557L16.5889 19.791C16.1283 20.0072 15.6824 20.1183 15.3964 20.0772C15.2401 20.0549 15.0982 20.0312 14.9731 20.0103C14.0564 19.8573 13.6457 19.834 12.6701 20.8073L10.2622 23.21L8.27244 21.2247C8.11779 21.0704 7.86731 21.0707 7.71304 21.2254C7.55871 21.38 7.55902 21.6305 7.71372 21.7848L9.98197 24.048C9.98203 24.048 9.98213 24.0481 9.98219 24.0482L9.98245 24.0485L9.98287 24.0489C10.0775 24.1433 10.1296 24.2697 10.1296 24.4047C10.1296 24.5397 10.0775 24.6661 9.98282 24.7605L7.96494 26.7739C7.76757 26.9708 7.44652 26.9707 7.24926 26.7739L1.67728 21.2143C1.58266 21.1199 1.53055 20.9935 1.53055 20.8585C1.53055 20.7236 1.58266 20.5971 1.67733 20.5027L3.69511 18.4894C3.89247 18.2925 4.21353 18.2926 4.41079 18.4894L6.40604 20.4802C6.56074 20.6345 6.81117 20.6343 6.9655 20.4796C7.11982 20.3249 7.11951 20.0744 6.96486 19.9202L5.25021 18.2094L6.64566 16.817C8.20572 15.2619 8.83748 14.039 8.75805 12.7282C8.71802 12.0593 8.96439 11.3731 9.4009 10.9374L11.8371 8.50674C11.9809 8.36317 12.2232 8.36259 12.3661 8.50521L12.7386 8.8769L15.3168 11.4493C15.3863 11.5187 15.4557 11.5874 15.5242 11.6551C15.8518 11.9792 16.3242 12.4466 16.4526 12.6957L16.4169 12.7316ZM17.709 15.0546C17.431 15.0546 17.1707 14.9475 16.9753 14.752C16.7807 14.5584 16.6734 14.2996 16.6732 14.0233C16.673 13.7464 16.7805 13.4865 16.9757 13.2917L18.4609 11.8098C18.663 11.6081 18.9286 11.5073 19.1941 11.5073C19.4596 11.5073 19.7252 11.6081 19.9273 11.8098C19.9275 11.8099 19.9276 11.8101 19.9277 11.8102C20.1225 12.0041 20.2299 12.2633 20.2299 12.5402C20.2299 12.8169 20.1227 13.0761 19.9277 13.2703C19.9275 13.2705 19.9274 13.2706 19.9273 13.2707L18.4418 14.7528C18.2473 14.9475 17.987 15.0546 17.709 15.0546ZM18.5918 16.931C18.4309 16.7705 18.3423 16.5558 18.3423 16.3267C18.3423 16.0975 18.4309 15.8829 18.5919 15.7223L20.4862 13.8307C20.6538 13.6635 20.8738 13.58 21.0939 13.58C21.3139 13.58 21.534 13.6635 21.7015 13.8307H21.7015C21.8624 13.9912 21.951 14.2058 21.951 14.435C21.951 14.6641 21.8623 14.8787 21.7015 15.0392L19.8056 16.931C19.4709 17.2648 18.9263 17.2648 18.5918 16.931Z" fill="#8D8D8D"/>
</svg>