<svg width="23" height="21" viewBox="0 0 23 21" fill="none" xmlns="http://www.w3.org/2000/svg">
<path d="M11.0862 5.71631C8.10139 5.71631 5.67303 8.14466 5.67303 11.1295C5.67303 14.1143 8.10139 16.5427 11.0862 16.5427C14.071 16.5427 16.4994 14.1143 16.4994 11.1295C16.4994 8.14466 14.071 5.71631 11.0862 5.71631ZM11.0862 14.8105C9.05654 14.8105 7.40525 13.1592 7.40525 11.1295C7.40525 9.09981 9.05654 7.44853 11.0862 7.44853C13.1159 7.44853 14.7672 9.09981 14.7672 11.1295C14.7672 13.1592 13.1159 14.8105 11.0862 14.8105Z" fill="#8D8D8D"/>
<path d="M19.5741 3.11799H16.3879C16.287 3.11799 16.1961 3.06295 16.1493 2.97392L15.2679 1.12161C15.2654 1.11655 15.263 1.11152 15.2605 1.1065C14.9193 0.424004 14.2332 0 13.4701 0H8.76399C8.0009 0 7.31486 0.424004 6.97365 1.10654C6.9711 1.11156 6.96867 1.11659 6.96625 1.12166L6.08472 2.97405C6.03795 3.06295 5.9471 3.11799 5.84624 3.11799H2.59833C1.16561 3.11799 0 4.2836 0 5.71632V17.4088C0 18.8415 1.16561 20.0071 2.59833 20.0071H19.5741C21.0068 20.0071 22.1724 18.8415 22.1724 17.4088V5.71632C22.1724 4.2836 21.0068 3.11799 19.5741 3.11799ZM20.4402 17.4088C20.4402 17.8863 20.0516 18.2749 19.5741 18.2749H2.59833C2.12076 18.2749 1.73222 17.8863 1.73222 17.4088V5.71632C1.73222 5.23875 2.12076 4.85021 2.59833 4.85021H5.84624C6.60928 4.85021 7.29533 4.42625 7.63657 3.74376C7.63913 3.73873 7.64155 3.73367 7.64402 3.7286L8.52555 1.87621C8.57228 1.78726 8.66313 1.73222 8.76399 1.73222H13.4701C13.571 1.73222 13.6618 1.78726 13.7086 1.87617L14.5901 3.72856C14.5926 3.73362 14.595 3.73869 14.5975 3.74371C14.9388 4.42621 15.6248 4.85017 16.3879 4.85017H19.5741C20.0516 4.85017 20.4402 5.23871 20.4402 5.71628V17.4088Z" fill="#8D8D8D"/>
<path d="M18.708 6.5824H16.9758V8.31462H18.708V6.5824Z" fill="#8D8D8D"/>
</svg>