<svg width="19" height="18" viewBox="0 0 19 18" fill="none" xmlns="http://www.w3.org/2000/svg">
<path d="M18.3889 5.74901C18.993 2.88734 19 0.622376 19 0.527344C19 0.387543 18.9414 0.253372 18.8369 0.154495C18.7326 0.0556183 18.5911 0 18.4434 0C18.343 0 15.9522 0.0065918 12.9316 0.57898C11.8554 0.782776 10.8358 1.03381 9.88139 1.32825C9.87486 1.33003 9.86863 1.33209 9.86225 1.33415C9.24444 1.52531 8.65388 1.73474 8.09419 1.96188C7.4097 2.23984 6.76985 2.54485 6.17668 2.8754C6.15871 2.88446 6.14117 2.89435 6.12435 2.9052C5.1727 3.44037 4.34194 4.04173 3.64295 4.70393C2.25497 6.01886 1.49061 7.76692 1.49061 9.62636C1.49061 11.3089 2.11654 12.9003 3.26389 14.1621L0.163078 17.0998C-0.0543594 17.3058 -0.0543594 17.6396 0.163078 17.8455C0.271797 17.9485 0.414146 18 0.556641 18C0.699135 18 0.841629 17.9485 0.950203 17.8455L4.05116 14.9079C5.38289 15.9947 7.06267 16.5877 8.8387 16.5877C10.8016 16.5877 12.6468 15.8637 14.0347 14.5489C14.7339 13.8866 15.3685 13.0994 15.9334 12.1978C15.9449 12.1819 15.9553 12.1653 15.9649 12.1483C16.3138 11.5862 16.6357 10.9801 16.929 10.3318C17.1692 9.8009 17.3904 9.24088 17.5925 8.65489C17.5942 8.64995 17.5959 8.64487 17.5975 8.63992C17.9085 7.73534 18.1736 6.76895 18.3889 5.74901ZM13.1285 1.61719C15.1967 1.22388 16.9926 1.1055 17.8706 1.06993C17.8331 1.90187 17.7081 3.60324 17.293 5.56252C17.137 6.2986 16.929 7.11653 16.654 7.96166L11.383 7.96179L14.6211 4.89427C14.8384 4.68828 14.8384 4.35429 14.6211 4.14844C14.4037 3.94244 14.0513 3.94244 13.8338 4.14844L10.596 7.21596V2.22253C11.4881 1.96202 12.3515 1.76495 13.1285 1.61719ZM15.1473 11.3739H7.78137L10.2697 9.01648L16.2787 9.01634C15.9695 9.81244 15.5968 10.6128 15.1473 11.3739ZM9.48275 2.57808V8.27051L6.99425 10.6279L6.9941 3.64993C7.79761 3.22408 8.64228 2.871 9.48275 2.57808ZM2.60389 9.62636C2.60389 8.04872 3.25243 6.56543 4.43008 5.44977C4.87379 5.0294 5.36245 4.6501 5.88082 4.30788L5.88111 11.6826L4.05405 13.4136C3.1153 12.353 2.60389 11.027 2.60389 9.62636ZM13.2476 13.8032C12.07 14.9187 10.5041 15.533 8.8387 15.533C7.36041 15.533 5.96069 15.0485 4.84118 14.1593L6.66809 12.4286H14.4529C14.0917 12.9198 13.6913 13.3827 13.2476 13.8032Z" fill="#8D8D8D"/>
</svg>