<svg width="23" height="20" viewBox="0 0 23 20" fill="none" xmlns="http://www.w3.org/2000/svg">
<path d="M15.5339 10.6203C14.5524 9.08908 12.8808 8.1748 11.0622 8.1748C9.24378 8.1748 7.57199 9.08908 6.59064 10.6203L4.22556 14.3098C3.83316 14.9221 3.6521 15.6292 3.70186 16.3546C3.75161 17.0801 4.0277 17.7558 4.50015 18.3088C4.97293 18.8616 5.59765 19.2394 6.30674 19.4014C7.01583 19.5634 7.74273 19.4943 8.40872 19.2016L8.45215 19.1823C10.1281 18.4599 12.0437 18.4664 13.7155 19.2016C14.1467 19.3911 14.6035 19.487 15.0645 19.487C15.3151 19.487 15.5672 19.4585 15.817 19.4016C16.5261 19.2397 17.1508 18.8619 17.6237 18.3091C18.0964 17.7563 18.3726 17.0805 18.4225 16.3549C18.4725 15.6292 18.2914 14.9221 17.899 14.3097L15.5339 10.6203ZM16.652 17.478C16.0505 18.1813 15.0773 18.4036 14.2302 18.0312C13.2234 17.5884 12.1427 17.367 11.0617 17.367C9.98166 17.367 8.90114 17.5882 7.895 18.0305L7.86637 18.0432C7.02581 18.3986 6.06694 18.1735 5.472 17.478C4.87108 16.7746 4.80269 15.7788 5.30193 14.9998L7.66717 11.3102C8.41238 10.1476 9.68145 9.45353 11.0622 9.45353C12.4429 9.45353 13.7122 10.1476 14.4575 11.3102L16.8225 14.9996C17.3219 15.7789 17.2533 16.7749 16.652 17.478Z" fill="#8D8D8D"/>
<path d="M4.86261 10.6154C5.56621 10.3451 6.10073 9.77817 6.36782 9.01882C6.62177 8.29625 6.60097 7.48048 6.30891 6.72163C6.01669 5.96328 5.48516 5.34422 4.81235 4.97828C4.10525 4.59403 3.3286 4.53145 2.62616 4.80221C1.21298 5.34555 0.564459 7.09191 1.18069 8.69598C1.67294 9.97271 2.82104 10.7787 3.98178 10.7787C4.27816 10.7787 4.57537 10.7261 4.86261 10.6154ZM2.37388 8.23667C2.01076 7.29144 2.32978 6.28596 3.08547 5.9954C3.22193 5.94282 3.36621 5.91669 3.51349 5.91669C3.74081 5.91669 3.97562 5.97876 4.20161 6.10174C4.60799 6.32257 4.93267 6.70599 5.11572 7.18111C5.29861 7.65655 5.31492 8.15846 5.16149 8.59463C5.02087 8.99436 4.75177 9.28824 4.40397 9.42188L4.4033 9.42221C3.64861 9.7131 2.73816 9.18107 2.37388 8.23667Z" fill="#8D8D8D"/>
<path d="M9.45165 7.72476C11.2183 7.72476 12.6556 6.08725 12.6556 4.07447C12.6556 2.06119 11.2183 0.42334 9.45165 0.42334C7.68517 0.42334 6.24802 2.06119 6.24802 4.07447C6.24802 6.08725 7.68517 7.72476 9.45165 7.72476ZM9.45165 1.7019C10.5132 1.7019 11.3771 2.76629 11.3771 4.07447C11.3771 5.38215 10.5132 6.4462 9.45165 6.4462C8.3901 6.4462 7.52658 5.38215 7.52658 4.07447C7.52658 2.76629 8.3901 1.7019 9.45165 1.7019Z" fill="#8D8D8D"/>
<path d="M14.9849 8.62164H14.9851C15.2568 8.71183 15.5341 8.75493 15.8102 8.75493C17.0985 8.75493 18.3541 7.81719 18.8332 6.37604C19.1091 5.54647 19.091 4.6693 18.7821 3.90629C18.459 3.10767 17.86 2.52788 17.0955 2.2736C16.331 2.01965 15.5038 2.12549 14.7667 2.57181C14.0626 2.99833 13.5231 3.68995 13.2477 4.51953C12.6661 6.26954 13.4454 8.10975 14.9849 8.62164ZM14.461 4.92275C14.6409 4.38107 14.9847 3.93475 15.4292 3.66549C15.8404 3.41637 16.2891 3.35296 16.6923 3.48693C17.0954 3.62106 17.4165 3.94024 17.5969 4.3859C17.7918 4.8675 17.8001 5.43098 17.6199 5.97265C17.2606 7.05368 16.2595 7.6977 15.3883 7.40831C14.5178 7.11875 14.1017 6.00377 14.461 4.92275Z" fill="#8D8D8D"/>
<path d="M21.7322 8.19554L21.7317 8.19504C20.5134 7.29507 18.6913 7.68515 17.6697 9.06505C16.6491 10.4456 16.8087 12.3016 18.0251 13.2023C18.4688 13.5309 18.993 13.688 19.5295 13.688C20.4646 13.688 21.4375 13.2108 22.0877 12.3331C23.1083 10.9525 22.9488 9.0965 21.7322 8.19554ZM21.06 11.5724C20.4568 12.3867 19.4368 12.6568 18.786 12.1747C18.1356 11.6932 18.096 10.6392 18.6976 9.8254C19.0975 9.28522 19.6816 8.98467 20.22 8.98467C20.4922 8.98467 20.7528 9.06156 20.9718 9.22348C21.6217 9.70541 21.6611 10.7591 21.06 11.5724Z" fill="#8D8D8D"/>
</svg>