<svg width="19" height="26" viewBox="0 0 19 26" fill="none" xmlns="http://www.w3.org/2000/svg">
<path d="M3.24109 0.684813L15.6779 0.684814C17.1905 0.685456 18.4166 1.91154 18.4172 3.42419L18.4172 22.8738C18.4166 24.3864 17.1905 25.6125 15.6779 25.6131L3.24109 25.6131C1.72844 25.6125 0.502352 24.3864 0.501711 22.8738L0.501713 3.42419C0.502354 1.91154 1.72844 0.685455 3.24109 0.684813ZM1.59746 22.8738C1.60003 23.7803 2.33452 24.5148 3.24109 24.5174L15.6779 24.5174C16.5844 24.5148 17.3189 23.7803 17.3215 22.8738L17.3215 3.42419C17.3189 2.51763 16.5844 1.78313 15.6779 1.78057L3.24109 1.78056C2.33453 1.78313 1.60003 2.51763 1.59746 3.42419L1.59746 22.8738Z" fill="#8D8D8D"/>
<path d="M8.06239 9.72473L10.8566 9.72473C11.1587 9.72559 11.4036 9.97042 11.4044 10.2726L11.4044 12.738C11.4036 13.0402 11.1587 13.2851 10.8566 13.2859L8.06239 13.2859C7.76021 13.2851 7.51537 13.0402 7.51452 12.738L7.51452 10.2726C7.51537 9.97042 7.76021 9.72559 8.06239 9.72473ZM8.61027 12.1902L10.3087 12.1902L10.3087 10.8205L8.61027 10.8205L8.61027 12.1902Z" fill="#8D8D8D"/>
<path d="M12.9933 9.72473L15.7874 9.72473C16.0896 9.72559 16.3345 9.97042 16.3353 10.2726L16.3353 12.738C16.3345 13.0402 16.0896 13.2851 15.7874 13.2859L12.9933 13.2859C12.6911 13.2851 12.4463 13.0402 12.4454 12.738L12.4454 10.2726C12.4463 9.97042 12.6911 9.72559 12.9933 9.72473ZM13.5411 12.1902L15.2396 12.1902L15.2396 10.8205L13.5411 10.8205L13.5411 12.1902Z" fill="#8D8D8D"/>
<path d="M3.13152 9.72473L5.92568 9.72473C6.22787 9.72559 6.4727 9.97042 6.47356 10.2726L6.47356 12.738C6.4727 13.0402 6.22787 13.2851 5.92568 13.2859L3.13152 13.2859C2.82933 13.2851 2.5845 13.0402 2.58364 12.738L2.58364 10.2726C2.5845 9.97042 2.82933 9.72559 3.13152 9.72473ZM3.67939 12.1902L5.37781 12.1902L5.37781 10.8205L3.67939 10.8205L3.67939 12.1902Z" fill="#8D8D8D"/>
<path d="M8.0624 14.6556L10.8566 14.6556C11.1587 14.6565 11.4036 14.9013 11.4044 15.2035L11.4044 17.669C11.4036 17.9712 11.1587 18.216 10.8566 18.2168L8.0624 18.2168C7.76021 18.216 7.51538 17.9711 7.51452 17.669L7.51452 15.2035C7.51538 14.9013 7.76021 14.6565 8.0624 14.6556ZM8.61027 17.1211L10.3087 17.1211L10.3087 15.7514L8.61027 15.7514L8.61027 17.1211Z" fill="#8D8D8D"/>
<path d="M12.9933 14.6556L15.7874 14.6556C16.0896 14.6565 16.3345 14.9013 16.3353 15.2035L16.3353 17.669C16.3345 17.9712 16.0896 18.216 15.7874 18.2168L12.9933 18.2168C12.6911 18.216 12.4463 17.9711 12.4454 17.669L12.4454 15.2035C12.4463 14.9013 12.6911 14.6565 12.9933 14.6556ZM13.5411 17.1211L15.2396 17.1211L15.2396 15.7514L13.5411 15.7514L13.5411 17.1211Z" fill="#8D8D8D"/>
<path d="M3.13152 14.6556L5.92568 14.6556C6.22787 14.6565 6.4727 14.9013 6.47356 15.2035L6.47356 17.669C6.4727 17.9712 6.22787 18.216 5.92568 18.2168L3.13152 18.2168C2.82933 18.216 2.5845 17.9711 2.58364 17.669L2.58364 15.2035C2.5845 14.9013 2.82933 14.6565 3.13152 14.6556ZM3.67939 17.1211L5.37781 17.1211L5.37781 15.7514L3.67939 15.7514L3.67939 17.1211Z" fill="#8D8D8D"/>
<path d="M8.06239 19.5864L10.8566 19.5864C11.1587 19.5873 11.4036 19.8321 11.4044 20.1343L11.4044 22.5997C11.4036 22.9019 11.1587 23.1468 10.8566 23.1476L8.06239 23.1476C7.76021 23.1468 7.51537 22.9019 7.51452 22.5997L7.51452 20.1343C7.51537 19.8321 7.76021 19.5873 8.06239 19.5864ZM8.61027 22.0519L10.3087 22.0519L10.3087 20.6822L8.61027 20.6822L8.61027 22.0519Z" fill="#8D8D8D"/>
<path d="M12.9933 19.5864L15.7874 19.5864C16.0896 19.5873 16.3345 19.8321 16.3353 20.1343L16.3353 22.5997C16.3345 22.9019 16.0896 23.1468 15.7874 23.1476L12.9933 23.1476C12.6911 23.1468 12.4463 22.9019 12.4454 22.5997L12.4454 20.1343C12.4463 19.8321 12.6911 19.5873 12.9933 19.5864ZM13.5411 22.0519L15.2396 22.0519L15.2396 20.6822L13.5411 20.6822L13.5411 22.0519Z" fill="#8D8D8D"/>
<path d="M3.13152 19.5864L5.92568 19.5864C6.22787 19.5873 6.4727 19.8321 6.47356 20.1343L6.47356 22.5997C6.4727 22.9019 6.22787 23.1468 5.92568 23.1476L3.13152 23.1476C2.82933 23.1468 2.5845 22.9019 2.58364 22.5997L2.58364 20.1343C2.5845 19.8321 2.82933 19.5873 3.13152 19.5864ZM3.67939 22.0519L5.37781 22.0519L5.37781 20.6822L3.67939 20.6822L3.67939 22.0519Z" fill="#8D8D8D"/>
<path d="M3.13152 3.15027L15.7874 3.15027C16.0896 3.15112 16.3345 3.39596 16.3353 3.69814L16.3353 7.80721C16.3345 8.1094 16.0896 8.35423 15.7874 8.35508L3.13152 8.35508C2.82933 8.35423 2.5845 8.1094 2.58364 7.80721L2.58364 3.69814C2.5845 3.39596 2.82933 3.15112 3.13152 3.15027ZM3.67939 7.25933L15.2396 7.25933L15.2396 4.24602L3.67939 4.24602L3.67939 7.25933Z" fill="#8D8D8D"/>
</svg>