<svg width="23" height="15" viewBox="0 0 23 15" fill="none" xmlns="http://www.w3.org/2000/svg">
<path d="M22.6642 0.169152C22.5743 0.0622304 22.439 0 22.2973 0H21.3485C21.1224 0 20.9278 0.155165 20.8833 0.370827L20.2423 3.46975C19.803 3.09879 19.2194 2.77162 18.3454 2.77162C17.0584 2.77162 16.3931 3.47893 15.9076 3.99544C15.4897 4.43932 15.3034 4.6193 14.8698 4.6193C14.4352 4.6193 14.249 4.43932 13.8311 3.99544C13.3456 3.47893 12.6793 2.77162 11.3923 2.77162C10.1062 2.77162 9.44001 3.4785 8.95446 3.995C8.53656 4.43889 8.3494 4.61934 7.91483 4.61934C7.47838 4.61934 7.29122 4.43889 6.87333 3.995C6.38596 3.4785 5.7197 2.77162 4.43176 2.77162C3.55491 2.77162 2.96991 3.10035 2.52995 3.47217L1.88825 0.370827C1.84378 0.155208 1.64919 0 1.42312 0H0.474307C0.332517 0 0.197265 0.0622737 0.107378 0.169152C0.0174918 0.276074 -0.018623 0.416819 0.00917469 0.552582L2.62673 13.2963C2.80371 14.157 3.58667 14.7817 4.48731 14.7817H18.2842C19.1848 14.7817 19.9678 14.157 20.1448 13.2963L22.7625 0.552626C22.7903 0.416819 22.7541 0.276074 22.6642 0.169152ZM18.2842 12.934L4.48735 12.9327L2.98134 5.65401C3.13101 5.51647 3.26466 5.37581 3.38932 5.2436C3.80816 4.79971 3.99531 4.61926 4.43176 4.61926C4.8682 4.61926 5.05536 4.79971 5.47508 5.24403C5.96156 5.76011 6.62777 6.46699 7.91478 6.46699C9.20179 6.46699 9.86804 5.75967 10.3535 5.24317C10.7714 4.79928 10.9577 4.6193 11.3922 4.6193C11.8268 4.6193 12.014 4.79976 12.4319 5.24364C12.9174 5.76015 13.5836 6.46703 14.8698 6.46703C16.1559 6.46703 16.8211 5.75972 17.3067 5.24364C17.7246 4.79932 17.9108 4.6193 18.3454 4.6193C18.78 4.6193 18.9671 4.79928 19.385 5.24364C19.5085 5.3749 19.6432 5.51435 19.791 5.65072L18.2842 12.934Z" fill="#8D8D8D"/>
</svg>