<svg width="182" height="182" viewBox="0 0 182 182" fill="none" xmlns="http://www.w3.org/2000/svg">
<path fill-rule="evenodd" clip-rule="evenodd" d="M127.4 54.6C127.4 34.5254 111.075 18.2 91 18.2C70.9254 18.2 54.6 34.5254 54.6 54.6C54.6 74.6746 70.9254 91 91 91C111.075 91 127.4 74.6746 127.4 54.6ZM182 182H136.5V163.8H161.834C154.318 129.347 125.443 109.2 91 109.2C56.5565 109.2 27.6822 129.347 20.1656 163.8H45.5V182H0C0 140.549 23.5053 109.637 56.8022 97.1241C44.3716 87.1232 36.4 71.799 36.4 54.6C36.4 24.4426 60.8426 0 91 0C121.157 0 145.6 24.4426 145.6 54.6C145.6 71.799 137.628 87.1232 125.198 97.1241C158.495 109.637 182 140.549 182 182ZM112.967 134.288L125.835 147.165L91 182L65.2652 156.265L78.1326 143.388L91 156.265L112.967 134.288Z" fill="#382F2D"/>
</svg>